<svg width="17.062134" height="10.164551" viewBox="0 0 17.0621 10.1646" fill="none" xmlns="http://www.w3.org/2000/svg" xmlns:xlink="http://www.w3.org/1999/xlink">
	<desc>
			Created with Pixso.
	</desc>
	<defs/>
	<path id="Vector" d="M12.8243 10.1646C12.9327 10.1649 13.0399 10.141 13.1379 10.0945C13.2359 10.048 13.3222 9.9801 13.3905 9.89587L16.897 5.54004C17.0038 5.41016 17.0621 5.24719 17.0621 5.0791C17.0621 4.91089 17.0038 4.74805 16.897 4.61804L13.2671 0.262207C13.1439 0.114014 12.9668 0.020752 12.7749 0.00305176C12.5829 -0.0146484 12.3918 0.0446777 12.2435 0.167847C12.0952 0.291138 12.002 0.46814 11.9843 0.660156C11.9666 0.852173 12.0259 1.04321 12.1491 1.19153L15.3942 5.08276L12.258 8.97388C12.1693 9.08044 12.1129 9.21021 12.0955 9.3479C12.0782 9.48547 12.1006 9.62512 12.1602 9.75037C12.2198 9.87561 12.314 9.9812 12.4317 10.0546C12.5493 10.1279 12.6856 10.1661 12.8243 10.1646Z" fill="#10AA42" fill-opacity="1.000000" fill-rule="nonzero"/>
	<path id="Vector" d="M6.56363 9.13586C6.65015 9.13623 6.7356 9.11707 6.81375 9.08008C6.89188 9.04297 6.96072 8.98889 7.01523 8.92175L9.81158 5.448C9.89676 5.34436 9.9433 5.21448 9.9433 5.08032C9.9433 4.94617 9.89676 4.81628 9.81158 4.71265L6.91681 1.23889C6.81854 1.12073 6.67731 1.04639 6.52423 1.03223C6.37112 1.01807 6.21872 1.06543 6.10046 1.1637C5.98224 1.26196 5.9079 1.4032 5.89377 1.55627C5.87967 1.70935 5.92694 1.86182 6.02521 1.97998L8.61316 5.08325L6.11206 8.1864C6.04126 8.27136 5.99628 8.37488 5.98245 8.48462C5.96863 8.59436 5.98654 8.70581 6.03403 8.80566C6.08154 8.90552 6.15668 8.98975 6.25052 9.04822C6.34439 9.10681 6.45303 9.13721 6.56363 9.13586Z" fill="#10AA42" fill-opacity="1.000000" fill-rule="nonzero"/>
	<path id="Vector" d="M0.499695 8.09534C0.563965 8.09546 0.627502 8.0813 0.685577 8.05383C0.743652 8.02625 0.79483 7.98596 0.835327 7.93604L2.91367 5.35425C2.97696 5.27734 3.01157 5.18066 3.01157 5.08105C3.01157 4.98132 2.97696 4.88477 2.91367 4.80786L0.762177 2.22595C0.689148 2.13818 0.584167 2.08289 0.470398 2.07239C0.356628 2.06189 0.243317 2.09705 0.155457 2.17004C0.0675659 2.24316 0.0123291 2.34802 0.00183105 2.46179C-0.00866699 2.57568 0.0264893 2.68896 0.0995178 2.77673L2.02295 5.08325L0.164062 7.38965C0.11145 7.45276 0.0780029 7.52966 0.067749 7.61121C0.0574646 7.69275 0.0707703 7.77563 0.106079 7.84985C0.141388 7.92407 0.197235 7.98669 0.266968 8.03015C0.336731 8.07361 0.41748 8.09631 0.499695 8.09534Z" fill="#10AA42" fill-opacity="1.000000" fill-rule="nonzero"/>
</svg>
