<svg width="111.538391" height="87.082397" viewBox="0 0 111.538 87.0824" fill="none" xmlns="http://www.w3.org/2000/svg" xmlns:xlink="http://www.w3.org/1999/xlink">
	<desc>
			Created with Pixso.
	</desc>
	<defs/>
	<path id="Vector" d="M66.325 29.7711C65.1049 22.7515 60.0483 17.3806 53.3876 13.8298C45.8791 9.8761 36.4431 8.14001 28.5809 8.80493C25.8243 9.10071 23.1454 9.65576 20.6415 10.4777C16.9405 11.6301 13.3044 13.21 9.84317 15.0566C9.53912 15.2023 9.40988 15.6147 9.58472 15.8815C9.75958 16.1483 10.2385 16.2694 10.5426 16.1238C13.5577 15.0032 16.5663 13.9666 19.6463 13.2733C22.7263 12.58 25.7934 12.0547 29.0161 12.048C36.1795 11.583 44.6447 13.2448 51.396 16.8871C56.9239 19.9288 61.1777 24.309 62.3 30.0542C60.527 30.2563 58.851 30.4658 57.1558 30.9272C53.9659 31.7811 50.9315 33.1536 48.3118 35.4871C46.4295 37.1167 44.3665 39.8306 43.8759 42.4115C43.4111 44.6565 43.9234 46.8918 46.2473 48.4214C50.7917 51.5568 55.4569 50.5625 59.2152 47.3871C63.588 43.8365 66.6071 37.5637 66.8315 33.3575C68.5916 33.3234 70.2483 33.3658 72.002 33.4156C79.017 33.6149 85.9554 36.089 91.4839 40.3978C96.3587 44.3187 100.432 49.7831 102.376 56.267C104.029 61.4615 103.52 66.8285 102.177 71.6248C101.24 74.9316 99.8372 77.9496 98.4666 80.5475C97.2123 82.901 95.9966 84.7507 94.7224 86.089C94.6189 86.1655 94.6125 86.2495 94.7095 86.257C94.8066 86.2644 94.9037 86.2719 94.9037 86.2719C96.6375 85.3065 98.6105 83.7683 100.434 81.6273C102.478 79.1654 104.282 76.0093 105.523 72.5566C107.384 67.3778 107.944 61.339 106.343 55.4727C104.165 48.2107 99.7486 42.1287 94.0259 37.8051C87.7529 33.0168 79.9666 30.14 71.8774 29.9429C70.033 29.8016 68.1822 29.7444 66.325 29.7711ZM62.4182 33.6108C61.0399 33.7587 59.6552 33.9906 58.3611 34.3138C55.7729 34.9603 53.3403 36.1255 51.2445 37.9922C50.0931 39.0021 48.7996 40.5924 48.1921 42.1508C47.7073 43.3806 47.5138 44.6328 48.7179 45.4852C51.3138 47.2889 54.0183 46.3979 56.2047 44.6226C59.5361 41.9214 62.1546 37.0538 62.4182 33.6108Z" fill="#F47458" fill-opacity="1.000000" fill-rule="evenodd"/>
	<path id="Vector" d="M11.0278 16.1605C11.9722 15.3037 12.9166 14.4469 13.7639 13.5826C14.8182 12.5653 15.9696 11.5554 16.9268 10.5306C19.5723 7.86133 21.933 5.08569 24.4813 2.40894C24.7918 2.17932 24.7205 1.83606 24.4485 1.56177C24.1766 1.2876 23.7819 1.3418 23.4714 1.57141C20.8903 3.401 18.1214 5.13171 15.5403 6.9613C14.4082 7.71924 13.2697 8.56128 12.2282 9.41064C9.83475 11.339 7.7197 13.4576 5.61105 15.4923C5.39761 15.7294 4.97073 16.2035 4.83508 16.7C4.69943 17.1963 4.66086 17.7002 4.82285 18.1349C4.98483 18.5697 5.2439 19.0118 5.99478 19.4072C6.37662 19.5209 7.14035 19.7483 8.20813 19.8301C11.7998 20.1051 20.717 19.6898 22.5742 19.6632L26.308 19.3578C26.5086 19.2887 26.7998 19.311 27.1039 19.1653C27.505 19.0271 27.9126 18.8049 28.126 18.5679C28.236 18.4073 27.9512 18.3011 28.1454 18.3159C28.2424 18.3234 28.1582 18.1479 28.0547 18.2246C27.9383 18.469 27.8734 18.0417 27.7699 18.1183C27.4594 18.3479 27.7892 17.8663 27.498 17.844C27.4009 17.8367 27.6015 17.7675 27.4073 17.7527C27.2132 17.7378 27.6079 17.6836 27.4202 17.5847C27.3296 17.4933 27.6208 17.5156 27.5301 17.4242C27.4395 17.3328 27.7179 17.5231 27.6336 17.3477C27.543 17.2562 27.7243 17.4391 27.7243 17.4391C27.7243 17.4391 27.7372 17.2711 27.8085 17.6144C27.705 17.6909 27.6985 17.7749 27.7956 17.7823C27.8863 17.8738 27.9833 17.8812 27.9898 17.7972C28.8249 18.368 28.0869 17.8047 28.4687 17.9183C28.5658 17.9258 28.4751 17.8344 28.5722 17.8418C29.064 17.795 28.3909 17.6591 28.6044 17.422C28.7079 17.3455 28.4102 17.4071 28.5137 17.3306C28.6237 17.17 28.3067 17.4836 28.2354 17.1403C28.2482 16.9724 28.1254 17.3008 27.9506 17.0341C27.7693 16.8512 28.0541 16.9575 27.5816 16.7524C27.2968 16.6461 26.5074 16.7546 26.2226 16.6483L22.7215 16.4647C21.1684 16.3457 15.1113 16.3888 11.0278 16.1605Z" fill="#F47458" fill-opacity="1.000000" fill-rule="evenodd"/>
</svg>
