<svg width="134.264282" height="229.524658" viewBox="0 0 134.264 229.525" fill="none" xmlns="http://www.w3.org/2000/svg" xmlns:xlink="http://www.w3.org/1999/xlink">
	<desc>
			Created with Pixso.
	</desc>
	<defs/>
	<path id="Vector" d="M5.23401 117.709L5.23401 144.548C5.23401 156.352 14.9225 166.041 26.7268 166.041L50.4468 166.041C62.2512 166.041 71.9396 156.352 71.9396 144.548L71.9396 117.709L5.23401 117.709Z" fill="#ECC742" fill-opacity="1.000000" fill-rule="nonzero"/>
	<path id="Vector" d="M69.267 134.525C67.0398 134.525 65.8148 133.745 64.8126 133.188C63.9217 132.632 63.1422 132.186 61.5831 132.186C60.024 132.186 59.2445 132.632 58.3536 133.188C57.3513 133.857 56.1263 134.525 53.8991 134.525C51.6719 134.525 50.4469 133.745 49.4446 133.188C48.5538 132.632 47.7742 132.186 46.2151 132.186C44.6561 132.186 43.8766 132.632 42.9857 133.188C41.9835 133.857 40.7585 134.525 38.5312 134.525C36.304 134.525 35.079 133.745 34.0768 133.188C33.1859 132.632 32.4063 132.186 30.8473 132.186C29.2882 132.186 28.5087 132.632 27.6177 133.188C26.6155 133.857 25.3905 134.525 23.1633 134.525C20.936 134.525 19.7111 133.745 18.7088 133.188C17.8179 132.632 17.0384 132.186 15.4794 132.186C13.9203 132.186 13.1407 132.632 12.2499 133.188C11.2476 133.857 10.0226 134.525 7.79541 134.525C5.56818 134.525 4.3432 133.745 3.34094 133.188C2.45001 132.632 1.67053 132.186 0.11145 132.186L0.11145 129.848C2.33868 129.848 3.56366 130.627 4.56592 131.184C5.45679 131.741 6.23633 132.186 7.79541 132.186C9.35443 132.186 10.134 131.741 11.0249 131.184C12.0272 130.516 13.2521 129.848 15.4794 129.848C17.7066 129.848 18.9316 130.627 19.9338 131.184C20.8247 131.741 21.6042 132.186 23.1633 132.186C24.7224 132.186 25.5019 131.741 26.3928 131.184C27.3951 130.516 28.6201 129.848 30.8473 129.848C33.0745 129.848 34.2995 130.627 35.3018 131.184C36.1926 131.741 36.9722 132.186 38.5312 132.186C40.0903 132.186 40.8698 131.741 41.7607 131.184C42.7629 130.516 43.9879 129.848 46.2151 129.848C48.4424 129.848 49.6674 130.627 50.6696 131.184C51.5605 131.741 52.3401 132.186 53.8991 132.186C55.4582 132.186 56.2377 131.741 57.1286 131.184C58.1309 130.516 59.3558 129.848 61.5831 129.848C63.8103 129.848 65.0353 130.627 66.0375 131.184C66.9284 131.741 67.708 132.186 69.267 132.186C70.8261 132.186 71.6057 131.741 72.4965 131.184C73.4988 130.516 74.7238 129.848 76.951 129.848L76.951 132.186C75.3919 132.186 74.6124 132.632 73.7215 133.188C72.7192 133.745 71.4943 134.525 69.267 134.525Z" fill="#FFFFFF" fill-opacity="1.000000" fill-rule="nonzero"/>
	<path id="Vector" d="M69.267 146.44C67.0397 146.44 65.8148 145.661 64.8125 145.104C63.9216 144.547 63.1421 144.102 61.583 144.102C60.0239 144.102 59.2444 144.547 58.3535 145.104C57.3513 145.772 56.1263 146.44 53.899 146.44C51.6718 146.44 50.4468 145.661 49.4446 145.104C48.5537 144.547 47.7742 144.102 46.2151 144.102C44.6561 144.102 43.8765 144.547 42.9856 145.104C41.9834 145.772 40.7584 146.44 38.5312 146.44C36.304 146.44 35.079 145.661 34.0767 145.104C33.1858 144.547 32.4062 144.102 30.8472 144.102C29.2881 144.102 28.5086 144.547 27.6177 145.104C26.6154 145.772 25.3904 146.44 23.1632 146.44C20.936 146.44 19.711 145.661 18.7087 145.104C17.8179 144.547 17.0383 144.102 15.4793 144.102C13.9202 144.102 13.1407 144.547 12.2498 145.104C11.2476 145.772 10.0226 146.44 7.79535 146.44C5.56812 146.44 4.34314 145.661 3.34088 145.104C2.44995 144.547 1.67047 144.102 0.111389 144.102L0.111389 141.763C2.33862 141.763 3.5636 142.543 4.56586 143.1C5.45673 143.656 6.23627 144.102 7.79535 144.102C9.35437 144.102 10.1339 143.656 11.0248 143.1C12.0271 142.431 13.2521 141.763 15.4793 141.763C17.7065 141.763 18.9315 142.543 19.9338 143.1C20.8246 143.656 21.6042 144.102 23.1632 144.102C24.7223 144.102 25.5018 143.656 26.3928 143.1C27.395 142.431 28.62 141.763 30.8472 141.763C33.0745 141.763 34.2994 142.543 35.3017 143.1C36.1926 143.656 36.9721 144.102 38.5312 144.102C40.0902 144.102 40.8698 143.656 41.7606 143.1C42.7629 142.431 43.9879 141.763 46.2151 141.763C48.4423 141.763 49.6673 142.543 50.6696 143.1C51.5605 143.656 52.34 144.102 53.899 144.102C55.4581 144.102 56.2377 143.656 57.1285 143.1C58.1308 142.431 59.3558 141.763 61.583 141.763C63.8102 141.763 65.0352 142.543 66.0375 143.1C66.9283 143.656 67.7079 144.102 69.267 144.102C70.826 144.102 71.6056 143.656 72.4965 143.1C73.4987 142.431 74.7237 141.763 76.9509 141.763L76.9509 144.102C75.3918 144.102 74.6124 144.547 73.7214 145.104C72.7192 145.661 71.4942 146.44 69.267 146.44Z" fill="#FFFFFF" fill-opacity="1.000000" fill-rule="nonzero"/>
	<g opacity="0.100000">
		<path id="Vector" d="M56.5718 117.709L56.5718 144.548C56.5718 156.352 46.8833 166.041 35.079 166.041L50.3356 166.041C62.1399 166.041 71.8283 156.352 71.8283 144.548L71.8283 117.709L56.5718 117.709Z" fill="#482C80" fill-opacity="1.000000" fill-rule="nonzero"/>
	</g>
	<path id="Vector" d="M6.10352e-05 113.7L76.951 113.7L76.951 121.719L6.10352e-05 121.719L6.10352e-05 113.7Z" fill="#D4A000" fill-opacity="1.000000" fill-rule="evenodd"/>
	<path id="Vector" d="M72.8306 130.739C71.7169 127.064 70.7147 123.834 69.6011 120.159C67.0398 111.362 64.4785 102.564 61.9171 93.7666C58.799 83.0759 55.6809 72.385 52.5627 61.6943C49.8901 52.4514 47.2174 43.3198 44.5447 34.0767C43.6538 31.0698 42.7629 27.9519 41.8721 24.9451C41.4266 23.4973 41.0925 21.9382 40.647 20.6021C40.647 20.4905 40.647 20.4905 40.5357 20.3792C40.5357 20.2678 40.5357 20.2678 40.4243 20.1565C40.4243 20.1565 40.4243 20.1565 40.4243 20.0452L40.313 19.9338C40.0903 19.7109 39.8676 19.7109 39.6448 19.8225C39.4221 19.9338 39.3107 20.0452 39.1993 20.2678C37.9744 23.9429 36.8608 27.6177 35.6358 31.2927C32.7404 40.0903 29.9563 48.8877 27.0609 57.6853C23.6087 68.2646 20.1565 78.844 16.7043 89.4233C13.6975 98.6665 10.6907 107.798 7.68402 117.041C6.68176 120.048 5.6795 123.055 4.67725 126.173C4.23181 127.509 3.5636 129.068 3.22955 130.516C3.22955 130.627 3.22955 130.627 3.11816 130.739C3.11816 130.85 3.11816 130.961 3.11816 131.073C3.11816 131.073 3.11816 131.073 3.11816 131.184C3.11816 131.295 3.22955 131.407 3.22955 131.518C9.02032 141.652 14.8112 151.675 20.6019 161.809C21.3815 163.256 22.161 164.593 23.0519 166.04C23.2747 166.486 24.0541 166.486 24.2769 166.04C28.954 155.906 33.6313 145.772 38.4198 135.638C38.8653 134.636 39.3107 133.745 39.7562 132.743C43.6538 142.32 47.5515 151.897 51.4492 161.586C52.006 163.033 52.5627 164.481 53.2309 165.929C53.4536 166.486 54.2332 166.708 54.4559 166.04C59.6899 155.906 64.9239 145.884 70.1579 135.75C70.826 134.414 71.6056 132.966 72.2737 131.629C72.7192 131.518 73.0533 131.184 72.8306 130.739ZM42.5402 31.8494C45.1016 40.647 47.6628 49.4446 50.2242 58.2422C53.3423 68.9329 56.4604 79.6235 59.5786 90.3145C62.2512 99.5574 64.9239 108.689 67.5966 117.932C68.4875 120.939 69.3784 124.057 70.2693 127.064C70.492 127.843 71.0488 129.291 71.3829 130.293C64.033 130.293 56.5718 130.293 49.2219 130.293C46.4379 130.293 43.6538 130.293 40.7584 130.293C40.7584 126.841 40.7584 123.389 40.7584 120.048C40.7584 111.25 40.7584 102.453 40.7584 93.6553C40.7584 83.0759 40.7584 72.4966 40.7584 61.9172C40.7584 52.6741 40.7584 43.5425 40.7584 34.2993C40.7584 31.4041 40.7584 28.5085 40.7584 25.6133C41.3152 27.6177 41.8721 29.7336 42.5402 31.8494ZM8.35217 120.159C11.2476 111.362 14.0316 102.564 16.9271 93.7666C20.3793 83.1873 23.8314 72.6079 27.2836 62.0286C30.2904 52.7854 33.2972 43.6538 36.304 34.4109C37.3062 31.4041 38.3085 28.3972 39.3107 25.2791C39.3107 25.1677 39.4221 25.0564 39.4221 24.9451C39.4221 27.061 39.4221 29.2881 39.4221 31.4041C39.4221 40.2017 39.4221 48.9993 39.4221 57.7966C39.4221 68.3762 39.4221 78.9556 39.4221 89.5349C39.4221 98.7778 39.4221 107.909 39.4221 117.153C39.4221 120.159 39.4221 123.166 39.4221 126.173C39.4221 127.398 39.3107 128.845 39.4221 130.071C30.5131 130.071 21.6042 130.071 12.5839 130.071C10.134 130.071 7.57263 130.071 5.12268 130.071C6.12494 126.952 7.23859 123.5 8.35217 120.159ZM25.2792 161.029C24.8337 162.031 24.2769 163.033 23.8314 164.147C18.2634 154.459 12.6953 144.77 7.1272 134.97C6.45905 133.857 5.90222 132.743 5.23407 131.629C12.4726 131.629 19.8224 131.629 27.0609 131.629C30.9586 131.629 34.9676 131.629 38.8652 131.629C34.2994 141.541 29.845 151.341 25.2792 161.029ZM55.6809 161.029C55.1241 162.031 54.6786 163.033 54.1218 163.924C50.2242 154.347 46.3265 144.659 42.4288 135.082C41.9834 133.968 41.538 132.854 41.0925 131.629C48.6651 131.629 56.2377 131.629 63.8102 131.629C66.1489 131.629 68.5989 131.629 70.9374 131.629C65.8148 141.541 60.6921 151.341 55.6809 161.029Z" fill="#6D3E1D" fill-opacity="1.000000" fill-rule="nonzero"/>
	<path id="Vector" d="M6.34772 130.961C6.34772 132.075 5.45679 132.966 4.3432 132.966C3.22955 132.966 2.33868 132.075 2.33868 130.961C2.33868 129.848 3.22955 128.957 4.3432 128.957C5.45679 128.845 6.34772 129.736 6.34772 130.961Z" fill="#6D3E1D" fill-opacity="1.000000" fill-rule="nonzero"/>
	<path id="Vector" d="M41.9834 130.961C41.9834 132.075 41.0925 132.966 39.9789 132.966C38.8652 132.966 37.9744 132.075 37.9744 130.961C37.9744 129.848 38.8652 128.957 39.9789 128.957C41.0925 128.845 41.9834 129.736 41.9834 130.961Z" fill="#6D3E1D" fill-opacity="1.000000" fill-rule="nonzero"/>
	<path id="Vector" d="M74.0557 130.961C74.0557 132.075 73.1648 132.966 72.0511 132.966C70.9376 132.966 70.0466 132.075 70.0466 130.961C70.0466 129.848 70.9376 128.957 72.0511 128.957C73.1648 128.845 74.0557 129.736 74.0557 130.961Z" fill="#6D3E1D" fill-opacity="1.000000" fill-rule="nonzero"/>
	<path id="Vector" d="M25.9473 165.706C25.9473 166.82 25.0564 167.711 23.9428 167.711C22.8292 167.711 21.9383 166.82 21.9383 165.706C21.9383 164.593 22.8292 163.702 23.9428 163.702C25.0564 163.702 25.9473 164.481 25.9473 165.706Z" fill="#6D3E1D" fill-opacity="1.000000" fill-rule="nonzero"/>
	<path id="Vector" d="M56.0149 165.706C56.0149 166.82 55.124 167.711 54.0104 167.711C52.8968 167.711 52.0059 166.82 52.0059 165.706C52.0059 164.593 52.8968 163.702 54.0104 163.702C55.124 163.702 56.0149 164.481 56.0149 165.706Z" fill="#6D3E1D" fill-opacity="1.000000" fill-rule="nonzero"/>
	<path id="Vector" d="M43.5425 19.7109C43.5425 21.6177 41.9969 23.1633 40.0903 23.1633C38.1837 23.1633 36.6381 21.6177 36.6381 19.7109C36.6381 17.8044 38.1837 16.2588 40.0903 16.2588C41.9969 16.2588 43.5425 17.8044 43.5425 19.7109Z" fill="#6D3E1D" fill-opacity="1.000000" fill-rule="evenodd"/>
	<path id="Vector" d="M40.8698 19.7109C40.8698 14.1428 40.8698 8.57495 40.8698 3.00684C40.8698 2.22729 40.8698 1.44775 40.8698 0.668213C40.8698 -0.222656 39.4221 -0.222656 39.4221 0.668213C39.4221 6.23633 39.4221 11.8044 39.4221 17.3723C39.4221 18.1519 39.4221 18.9314 39.4221 19.7109C39.4221 20.7134 40.8698 20.7134 40.8698 19.7109Z" fill="#6D3E1D" fill-opacity="1.000000" fill-rule="nonzero"/>
	<path id="Vector" d="M89.2466 192.652C92.555 197.013 89.3978 204.978 82.1949 210.442C74.9919 215.907 66.4708 216.801 63.1624 212.44C59.8541 208.079 63.0112 200.114 70.2142 194.65C77.4172 189.186 85.9383 188.291 89.2466 192.652Z" fill="#8AC27C" fill-opacity="1.000000" fill-rule="evenodd"/>
	<path id="Vector" d="M86.3052 219.716C85.9711 214.037 89.8688 209.248 91.7619 209.026C93.8778 208.914 98.2209 213.146 98.6663 218.825C99.0004 224.505 96.5505 229.293 93.2097 229.516C89.7574 229.739 86.6393 225.396 86.3052 219.716Z" fill="#8AC27C" fill-opacity="1.000000" fill-rule="nonzero"/>
	<path id="Vector" d="M101.116 198.335C98.7778 191.876 101.785 184.86 104.012 184.081C106.462 183.19 112.921 186.865 115.259 193.324C117.598 199.783 116.262 206.13 112.364 207.578C108.355 208.915 103.344 204.794 101.116 198.335Z" fill="#8AC27C" fill-opacity="1.000000" fill-rule="nonzero"/>
	<path id="Vector" d="M125.805 167.995C130.477 173.058 131.809 179.427 128.781 182.222C125.753 185.016 119.51 183.178 114.839 178.116C110.167 173.053 108.835 166.684 111.863 163.889C114.891 161.095 121.134 162.933 125.805 167.995Z" fill="#8AC27C" fill-opacity="1.000000" fill-rule="evenodd"/>
	<path id="Vector" d="M89.5348 168.601C93.2097 165.149 98.7778 165.149 100.003 166.486C101.228 167.822 100.782 173.279 96.996 176.731C93.321 180.183 88.6439 181.074 86.528 178.847C84.5235 176.619 85.8599 172.053 89.5348 168.601Z" fill="#8AC27C" fill-opacity="1.000000" fill-rule="nonzero"/>
	<path id="Vector" d="M102.23 72.719C96.6619 73.387 91.762 69.7122 91.4279 67.8188C91.2052 65.7031 95.2142 61.2485 100.782 60.5806C106.35 59.9124 111.139 62.1394 111.584 65.4805C111.918 68.8213 107.687 72.0508 102.23 72.719Z" fill="#8AC27C" fill-opacity="1.000000" fill-rule="nonzero"/>
	<path id="Vector" d="M84.7462 89.98C85.1917 86.4163 88.3098 83.855 89.5347 83.9663C90.871 84.1892 93.0983 87.4187 92.5415 90.9822C92.0961 94.5457 89.8688 97.2185 87.7529 96.9956C85.637 96.7729 84.3007 93.5435 84.7462 89.98Z" fill="#8AC27C" fill-opacity="1.000000" fill-rule="nonzero"/>
	<path id="Vector" d="M117.38 89.4773C122.286 91.4541 125.294 95.4609 124.099 98.4272C122.904 101.394 117.958 102.196 113.052 100.219C108.146 98.2427 105.138 94.2356 106.334 91.2693C107.529 88.303 112.475 87.5007 117.38 89.4773Z" fill="#8AC27C" fill-opacity="1.000000" fill-rule="evenodd"/>
	<path id="Vector" d="M109.134 115.927C106.684 113.255 106.684 109.246 107.575 108.466C108.578 107.575 112.475 107.909 114.925 110.582C117.375 113.255 118.043 116.595 116.484 118.043C114.925 119.491 111.584 118.6 109.134 115.927Z" fill="#8AC27C" fill-opacity="1.000000" fill-rule="nonzero"/>
	<path id="Vector" d="M83.9667 114.257C85.8599 111.139 89.7575 110.136 90.7598 110.805C91.8734 111.473 92.5416 115.371 90.6484 118.489C88.7552 121.607 85.6371 123.054 83.8553 121.941C82.0735 120.827 82.0735 117.375 83.9667 114.257Z" fill="#8AC27C" fill-opacity="1.000000" fill-rule="nonzero"/>
	<path id="Vector" d="M110.916 140.427C106.016 138.422 103.455 133.188 104.123 131.406C104.903 129.513 110.248 127.62 115.259 129.625C120.159 131.629 123.166 135.638 122.052 138.645C120.827 141.652 115.927 142.431 110.916 140.427Z" fill="#8AC27C" fill-opacity="1.000000" fill-rule="nonzero"/>
	<path id="Vector" d="M87.4188 149.002C88.8665 143.879 93.9891 140.761 95.7709 141.318C97.6641 141.875 100.225 147.109 98.6663 152.343C97.2186 157.465 93.4323 160.917 90.3142 160.027C87.3074 159.136 85.9711 154.125 87.4188 149.002Z" fill="#8AC27C" fill-opacity="1.000000" fill-rule="nonzero"/>
	<path id="Vector" d="M70.8259 159.358C72.7191 152.788 79.178 148.89 81.5167 149.558C83.9666 150.227 87.1961 157.02 85.3029 163.59C83.4098 170.16 78.6212 174.615 74.6122 173.39C70.6032 172.165 68.9328 165.929 70.8259 159.358Z" fill="#8AC27C" fill-opacity="1.000000" fill-rule="nonzero"/>
	<path id="Vector" d="M88.7775 133.481C91.6733 137.228 92.2064 141.668 89.9679 143.398C87.7295 145.128 83.5673 143.493 80.6714 139.746C77.7755 136 77.2425 131.559 79.4809 129.829C81.7193 128.099 85.8815 129.734 88.7775 133.481Z" fill="#8AC27C" fill-opacity="1.000000" fill-rule="evenodd"/>
	<path id="Vector" d="M84.078 107.13C80.5144 106.35 78.2872 103.01 78.5099 101.784C78.844 100.448 82.2962 98.5549 85.7484 99.3345C89.312 100.114 91.762 102.453 91.3165 104.68C90.8711 106.796 87.5302 107.909 84.078 107.13Z" fill="#8AC27C" fill-opacity="1.000000" fill-rule="nonzero"/>
	<path id="Vector" d="M79.5121 87.6416C76.394 90.5371 71.8282 90.5371 70.8259 89.4236C69.7123 88.3098 70.2691 83.7439 73.2758 80.96C76.394 78.0645 80.2916 77.2852 81.9621 79.1782C83.7438 80.96 82.6302 84.7463 79.5121 87.6416Z" fill="#8AC27C" fill-opacity="1.000000" fill-rule="nonzero"/>
	<path id="Vector" d="M62.6965 104.234C58.6875 103.9 55.7921 100.559 55.9035 99.2229C56.0148 97.7754 59.5784 95.2139 63.4761 95.5481C67.4851 95.8821 70.4919 98.1094 70.2692 100.559C70.0464 103.009 66.7056 104.568 62.6965 104.234Z" fill="#8AC27C" fill-opacity="1.000000" fill-rule="nonzero"/>
	<path id="Vector" d="M59.2443 85.3027C55.6808 87.0845 51.449 85.8596 50.7808 84.6345C50.1127 83.2983 51.6718 79.2893 55.3467 77.5073C58.9103 75.7256 62.6965 75.9485 63.8101 78.1755C64.8124 80.2915 62.8079 83.521 59.2443 85.3027Z" fill="#8AC27C" fill-opacity="1.000000" fill-rule="nonzero"/>
	<path id="Vector" d="M22.9404 88.6438C26.7267 90.8711 28.1744 95.437 27.3949 96.7732C26.6154 98.2209 21.9382 99.1118 18.1519 96.9961C14.3656 94.7688 12.3611 91.2053 13.6974 88.8667C15.0338 86.5281 19.1542 86.4167 22.9404 88.6438Z" fill="#8AC27C" fill-opacity="1.000000" fill-rule="nonzero"/>
	<path id="Vector" d="M77.7304 56.6829C74.0554 60.9148 67.9306 61.5828 66.4828 60.2466C64.9238 58.9102 64.9238 52.7854 68.5988 48.6648C72.2737 44.4331 77.285 42.874 79.8463 45.1013C82.2963 47.2173 81.4053 52.4512 77.7304 56.6829Z" fill="#8AC27C" fill-opacity="1.000000" fill-rule="nonzero"/>
	<path id="Vector" d="M17.3724 66.8167C21.4927 69.1553 23.0518 74.1665 22.2723 75.6143C21.3813 77.1733 16.3701 78.1755 12.1384 75.8369C8.01794 73.4983 5.79077 69.4893 7.23846 67.0393C8.68616 64.5894 13.252 64.478 17.3724 66.8167Z" fill="#8AC27C" fill-opacity="1.000000" fill-rule="nonzero"/>
	<path id="Vector" d="M45.9924 70.1577C42.2061 73.0532 36.9721 72.4963 35.9698 71.1599C34.8563 69.7124 35.9698 64.7009 39.7562 61.8057C43.5425 58.9102 48.1083 58.5762 49.7787 60.8035C51.5605 63.0305 49.8901 67.2625 45.9924 70.1577Z" fill="#8AC27C" fill-opacity="1.000000" fill-rule="nonzero"/>
	<path id="Vector" d="M39.3107 55.7922C35.8585 60.5808 29.5108 62.0283 27.8404 60.8035C26.0586 59.467 25.3904 53.1194 28.8427 48.3311C32.2949 43.5425 37.4175 41.2039 40.3129 43.3196C43.2083 45.4355 42.7629 51.0037 39.3107 55.7922Z" fill="#8AC27C" fill-opacity="1.000000" fill-rule="nonzero"/>
	<path id="Vector" d="M41.9832 65.1465C37.1947 67.8193 33.5197 73.0532 31.8493 78.176C30.9584 81.0713 30.6243 84.0781 30.6243 87.085C30.6243 88.0872 32.1833 88.0872 32.072 87.085C31.8493 79.4009 34.9675 71.8284 41.3151 67.2625C41.7605 66.9285 42.2059 66.5942 42.6514 66.3716C43.5423 66.0376 42.7628 64.7012 41.9832 65.1465Z" fill="#72A265" fill-opacity="1.000000" fill-rule="nonzero"/>
	<path id="Vector" d="M15.0337 71.9397C20.4904 74.6123 25.1676 79.5122 28.1744 84.6348C29.8448 87.4189 30.9584 90.4255 31.6266 93.5437C31.8493 94.4346 33.2971 94.1006 33.0743 93.0984C31.0698 84.1895 25.279 76.5054 17.595 71.7168C17.0382 71.3828 16.3701 70.9373 15.8133 70.7146C14.9224 70.2693 14.2542 71.4941 15.0337 71.9397Z" fill="#72A265" fill-opacity="1.000000" fill-rule="nonzero"/>
	<path id="Vector" d="M20.1564 92.8755C24.4995 93.8777 28.1744 97.7754 29.9562 101.784C31.0698 104.346 31.5153 107.018 31.6266 109.802C31.6266 110.805 33.1857 110.805 33.0743 109.802C32.8516 105.125 31.6266 100.559 28.6199 96.8845C26.8381 94.7686 24.6108 92.9868 22.0495 91.9846C21.4927 91.7617 21.0472 91.5391 20.4905 91.4277C19.5995 91.3164 19.1541 92.6526 20.1564 92.8755Z" fill="#72A265" fill-opacity="1.000000" fill-rule="nonzero"/>
	<path id="Vector" d="M76.9509 203.903C83.6326 199.226 90.203 193.992 95.6597 187.978C97.5529 185.862 99.4459 183.635 100.894 181.185C101.339 180.406 100.114 179.626 99.5574 180.406C96.8847 184.971 92.987 188.758 89.0894 192.21C85.6371 195.328 82.0735 198.224 78.3986 200.896C77.6191 201.453 76.8395 202.01 76.1714 202.567C75.5032 203.124 76.1714 204.46 76.9509 203.903Z" fill="#72A265" fill-opacity="1.000000" fill-rule="nonzero"/>
	<path id="Vector" d="M109.914 199.782C108.355 196.665 107.019 193.212 106.128 189.76C104.346 183.635 103.232 176.842 105.46 170.717C105.794 169.826 104.346 169.381 104.012 170.272C101.673 176.508 102.787 183.524 104.569 189.76C105.571 193.435 106.907 197.11 108.689 200.451C109.134 201.342 110.359 200.674 109.914 199.782Z" fill="#72A265" fill-opacity="1.000000" fill-rule="nonzero"/>
	<path id="Vector" d="M92.653 173.613C98.1096 170.049 103.01 164.481 105.348 158.356C106.35 155.684 106.907 152.788 106.796 149.893C106.796 148.891 105.237 148.891 105.348 149.893C105.682 156.018 102.787 161.697 98.7778 166.152C96.7733 168.379 94.4347 170.606 91.9847 172.276C91.2052 172.833 91.8734 174.17 92.653 173.613Z" fill="#72A265" fill-opacity="1.000000" fill-rule="nonzero"/>
	<path id="Vector" d="M122.609 176.397C120.493 175.061 118.6 173.056 116.93 171.163C112.364 165.818 109.357 159.359 107.575 152.677C107.353 151.786 105.905 152.12 106.128 153.122C108.578 161.92 113.143 170.829 120.382 176.62C120.827 176.954 121.384 177.399 121.83 177.733C122.721 178.179 123.5 176.842 122.609 176.397Z" fill="#72A265" fill-opacity="1.000000" fill-rule="nonzero"/>
	<path id="Vector" d="M92.9869 154.681C96.8845 147.108 98.5549 137.643 96.439 129.402C96.2163 128.511 94.7686 128.845 94.9913 129.847C96.9958 137.754 95.4368 146.886 91.6505 154.013C91.2051 154.792 92.5414 155.572 92.9869 154.681Z" fill="#72A265" fill-opacity="1.000000" fill-rule="nonzero"/>
	<path id="Vector" d="M117.152 136.307C114.814 135.638 112.475 134.636 110.248 133.523C105.905 131.295 101.673 128.4 98.889 124.391C97.2186 121.941 96.2164 119.046 96.105 116.039C96.105 115.037 94.546 115.037 94.6573 116.039C94.88 126.618 105.014 133.3 113.923 136.864C114.814 137.198 115.705 137.531 116.707 137.866C117.598 137.977 118.043 136.641 117.152 136.307Z" fill="#72A265" fill-opacity="1.000000" fill-rule="nonzero"/>
	<path id="Vector" d="M86.1938 117.821C88.087 116.262 89.6461 114.146 90.9824 112.141C94.546 107.019 97.1073 101.228 98.7777 95.103C99.0004 94.2122 97.5527 93.7666 97.33 94.6575C95.771 100.56 93.2097 106.239 89.7574 111.25C88.4211 113.144 86.9734 115.037 85.1916 116.596C84.412 117.375 85.5256 118.489 86.1938 117.821Z" fill="#72A265" fill-opacity="1.000000" fill-rule="nonzero"/>
	<path id="Vector" d="M113.589 114.368C111.139 112.364 109.134 109.914 107.241 107.353C102.564 101.005 99.3345 93.7666 97.5527 86.1938C97.33 85.303 95.8823 85.6372 96.105 86.6394C97.8868 94.3235 101.228 101.785 105.905 108.132C107.798 110.694 109.914 113.366 112.475 115.371C113.255 115.927 114.257 114.925 113.589 114.368Z" fill="#72A265" fill-opacity="1.000000" fill-rule="nonzero"/>
	<path id="Vector" d="M89.6461 91.2051C89.9802 88.3098 89.8688 85.303 89.5347 82.4075C88.8665 76.8394 86.9734 71.3828 83.0757 67.2625C82.4076 66.5942 81.4053 67.5964 82.0735 68.2646C87.5302 74.1667 89.2006 83.4097 88.1984 91.2051C88.087 92.2073 89.5347 92.2073 89.6461 91.2051Z" fill="#72A265" fill-opacity="1.000000" fill-rule="nonzero"/>
	<path id="Vector" d="M115.482 94.2117C109.468 91.9844 103.455 88.5322 98.7777 84.0776C96.7732 82.1846 94.88 80.0686 93.5437 77.6187C93.0982 76.8391 91.7619 77.5073 92.2073 78.3982C96.5504 86.0823 104.903 91.3162 112.809 94.7686C113.589 95.1025 114.257 95.4365 115.036 95.6594C116.039 95.9934 116.373 94.5457 115.482 94.2117Z" fill="#72A265" fill-opacity="1.000000" fill-rule="nonzero"/>
	<path id="Vector" d="M75.6146 65.3691C79.4008 66.7056 83.2985 67.8191 87.1962 68.4873C92.5415 69.4895 99.5573 70.4917 104.457 67.2622C105.237 66.7056 104.457 65.4805 103.678 65.926C98.8891 69.0439 91.8734 67.9304 86.6393 66.8169C83.0757 66.0374 79.4009 65.1465 75.9487 63.8101C75.0577 63.5874 74.7236 65.0349 75.6146 65.3691Z" fill="#72A265" fill-opacity="1.000000" fill-rule="nonzero"/>
	<path id="Vector" d="M72.0509 51.8945C71.9396 52.8967 71.4941 53.5649 70.9373 54.4558C69.4896 56.9058 67.2623 59.0217 64.9238 60.6921C62.6965 62.3625 60.2466 63.699 57.7966 64.9238C56.9057 65.3694 57.6852 66.5942 58.5762 66.2603C62.5851 64.3669 66.4828 61.917 69.4896 58.7988C70.9373 57.24 72.385 55.458 73.1646 53.4536C73.2759 53.1194 73.3873 52.7854 73.4986 52.4514C73.61 51.3376 72.1623 50.8923 72.0509 51.8945Z" fill="#72A265" fill-opacity="1.000000" fill-rule="nonzero"/>
	<path id="Vector" d="M57.908 79.9575C55.6808 80.96 53.6763 82.1848 51.6718 83.5212C47.5514 86.4165 43.7651 89.9802 41.0924 94.2119C39.3106 96.9958 38.0857 100.114 37.4175 103.344C37.1948 104.234 38.6425 104.68 38.8652 103.789C40.647 94.2119 48.2196 86.8621 56.4603 82.2961C57.1285 81.9622 57.908 81.5166 58.5762 81.1826C59.4671 80.8486 58.6876 79.5122 57.908 79.9575Z" fill="#72A265" fill-opacity="1.000000" fill-rule="nonzero"/>
	<path id="Vector" d="M86.4166 137.754C84.412 135.861 82.6302 133.745 81.0712 131.629C78.1758 127.731 75.3917 123.054 74.8349 118.043C74.7236 117.152 73.2758 117.041 73.3872 118.043C73.8326 123.277 76.6167 127.954 79.6235 132.186C81.4053 134.525 83.2984 136.863 85.4143 138.868C85.9711 139.536 87.0847 138.422 86.4166 137.754Z" fill="#72A265" fill-opacity="1.000000" fill-rule="nonzero"/>
	<path id="Vector" d="M47.8855 105.682C48.7764 104.234 50.1127 102.898 51.4491 101.896C54.7899 99.4458 58.799 98.7776 62.808 99.6685C63.6989 99.8911 64.1443 98.4434 63.2534 98.2207C59.6898 97.4412 56.1263 97.6638 52.8968 99.3345C50.7809 100.337 48.9991 101.896 47.5515 103.789C47.2173 104.234 46.8832 104.568 46.6605 105.014C46.1037 105.682 47.4401 106.461 47.8855 105.682Z" fill="#72A265" fill-opacity="1.000000" fill-rule="nonzero"/>
	<path id="Vector" d="M61.6943 92.3188C63.142 92.2075 64.5897 91.9849 66.0374 91.6506C68.5987 91.094 71.2714 90.3145 73.4987 88.8667C74.7236 88.0872 75.7259 87.085 76.394 85.8599C76.8395 84.969 75.5031 84.3008 75.0577 85.0803C73.9441 87.1963 71.6055 88.3098 69.4896 89.0894C67.3737 89.8689 65.1465 90.3145 63.0306 90.6484C62.5852 90.7598 62.2511 90.7598 61.6943 90.7598C60.8034 90.8713 60.8034 92.4302 61.6943 92.3188Z" fill="#72A265" fill-opacity="1.000000" fill-rule="nonzero"/>
	<path id="Vector" d="M72.1624 96.1052C72.8306 97.1074 73.61 98.1096 74.3896 99.0005C75.9487 100.782 77.8418 102.453 80.069 103.344C81.4054 103.9 82.8531 104.235 84.3008 104.235C85.3031 104.235 85.3031 102.676 84.3008 102.787C80.0691 103.01 76.3942 99.446 74.1669 96.3279C73.9442 95.9937 73.7214 95.6597 73.4987 95.3257C72.9419 94.5461 71.6056 95.3257 72.1624 96.1052Z" fill="#72A265" fill-opacity="1.000000" fill-rule="nonzero"/>
	<path id="Vector" d="M30.5131 86.4163C31.8495 92.0957 32.1835 98.1094 32.0722 104.011C31.9608 107.241 31.7381 110.47 31.1813 113.7L32.629 113.7C34.0767 106.016 33.8539 97.7751 32.7404 90.0913C31.5154 82.4072 27.2836 74.946 27.8405 66.928C28.2859 61.0259 31.5154 55.792 35.3017 51.4487C35.9698 50.6692 34.8562 49.667 34.2994 50.4465C30.9586 54.3442 27.9518 58.7986 26.8382 63.9214C26.0587 67.7075 26.3928 71.4939 27.2836 75.1689C28.1746 78.8438 29.5109 82.6301 30.5131 86.4163Z" fill="#72A265" fill-opacity="1.000000" fill-rule="nonzero"/>
	<path id="Vector" d="M108.244 157.354C108.021 152.677 106.462 148.222 104.346 143.99C102.341 139.981 99.78 136.195 97.7755 132.186C96.8846 130.516 96.1051 128.734 95.7711 126.841C95.437 124.836 95.437 122.832 95.6597 120.939C96.4392 111.25 99.6687 101.784 98.7778 91.8733C97.8869 83.0757 92.987 74.835 86.0826 69.3782C78.6213 63.3647 68.9329 61.1375 59.8012 64.1443C52.2286 66.7056 46.6606 72.051 43.097 79.178C38.1971 89.2007 36.8607 102.453 37.3062 113.478C37.3062 113.589 37.3062 113.7 37.3062 113.7L38.7538 113.7C38.197 104.569 39.1993 93.655 42.2061 84.969C44.4333 78.2871 48.2196 71.8281 54.4559 68.1533C63.142 62.9192 73.7214 63.0308 82.2963 68.4873C89.7575 73.2759 95.6597 81.5166 96.996 90.3142C98.4437 99.8914 95.437 109.469 94.3234 118.934C93.8779 122.386 93.6552 126.284 94.9915 129.625C96.5505 133.411 98.8892 136.975 100.894 140.538C103.121 144.547 105.237 148.668 106.239 153.234C107.241 157.799 106.796 162.477 105.348 166.931C102.675 175.172 98.4437 182.744 95.3256 190.762C91.9847 199.449 89.4234 208.803 90.8711 218.157C91.2052 220.496 91.762 222.723 92.6529 224.839C92.987 225.73 94.4347 225.396 94.1006 224.394C86.9734 205.462 99.446 186.753 106.016 169.604C107.353 165.817 108.466 161.697 108.244 157.354Z" fill="#72A265" fill-opacity="1.000000" fill-rule="nonzero"/>
	<path id="Vector" d="M81.6281 147.22C80.6258 143.211 78.2872 139.647 76.2827 136.084C74.5009 132.966 74.3895 129.291 74.3895 125.727C74.3895 121.495 74.7236 117.264 75.1691 113.032C75.8372 106.461 77.1736 99.0002 72.051 93.7664C66.1488 87.7527 56.3489 91.3164 51.5604 96.8845C48.1082 100.894 44.656 108.132 43.0969 113.811L44.656 113.811C45.9923 109.468 48.4423 104.011 50.5581 100.782C52.4513 97.7754 55.124 94.9912 58.4648 93.5435C62.2511 91.873 67.0397 91.5391 70.3806 94.323C75.8373 98.7776 74.3895 106.461 73.8327 112.586C73.3873 116.484 73.0532 120.382 73.0532 124.391C72.9418 127.732 72.9418 131.295 73.9441 134.636C75.0577 138.311 77.8417 141.541 79.2895 145.104C81.5167 150.561 81.0712 156.129 78.5099 161.474C78.0645 162.365 79.4008 163.033 79.8463 162.254C81.9622 157.242 82.9644 152.231 81.6281 147.22Z" fill="#72A265" fill-opacity="1.000000" fill-rule="nonzero"/>
</svg>
