<svg width="15.019135" height="15.448975" viewBox="0 0 15.0191 15.449" fill="none" xmlns="http://www.w3.org/2000/svg" xmlns:xlink="http://www.w3.org/1999/xlink">
	<desc>
			Created with Pixso.
	</desc>
	<defs/>
	<path id="Vector" d="M3.6102 1.85999C3.6102 2.88721 2.80203 3.71997 1.80508 3.71997C0.808167 3.71997 0 2.88721 0 1.85999C0 0.832764 0.808167 0 1.80508 0C2.80203 0 3.6102 0.832764 3.6102 1.85999Z" fill="#678570" fill-opacity="0.530000" fill-rule="evenodd"/>
	<path id="Vector" d="M5.3147 5.12903L5.3147 15.448L8.4241 15.448L8.4241 10.3451C8.4241 8.99854 8.66995 7.69458 10.2903 7.69458C11.8883 7.69458 11.9081 9.23401 11.9081 10.4301L11.9081 15.4489L15.0191 15.4489L15.0191 9.78992C15.0191 7.01025 14.4384 4.87402 11.2852 4.87402C9.77133 4.87402 8.75659 5.72998 8.34161 6.54016L8.29953 6.54016L8.29953 5.12903L5.3147 5.12903ZM0.247559 5.12903L3.36194 5.12903L3.36194 15.448L0.247559 15.448L0.247559 5.12903Z" fill="#678570" fill-opacity="0.530000" fill-rule="nonzero"/>
</svg>
