<svg width="36.522766" height="34.309326" viewBox="0 0 36.5228 34.3093" fill="none" xmlns="http://www.w3.org/2000/svg" xmlns:xlink="http://www.w3.org/1999/xlink">
	<desc>
			Created with Pixso.
	</desc>
	<defs>
		<clipPath id="clip2_509">
			<rect id="Frame" width="36.522778" height="34.309277" fill="white" fill-opacity="0"/>
		</clipPath>
		<linearGradient id="paint_linear_2_512_0" x1="15.573026" y1="9.182199" x2="14.276579" y2="14.677611" gradientUnits="userSpaceOnUse">
			<stop stop-color="#0CA941"/>
			<stop offset="0.500000" stop-color="#088733"/>
			<stop offset="1.000000" stop-color="#0CA941"/>
		</linearGradient>
		<linearGradient id="paint_linear_2_514_0" x1="12.439085" y1="25.136623" x2="17.689701" y2="23.250599" gradientUnits="userSpaceOnUse">
			<stop stop-color="#0CA941"/>
			<stop offset="0.500000" stop-color="#088733"/>
			<stop offset="1.000000" stop-color="#0CA941"/>
		</linearGradient>
		<linearGradient id="paint_linear_2_516_0" x1="23.438820" y1="16.729527" x2="27.522619" y2="20.631603" gradientUnits="userSpaceOnUse">
			<stop stop-color="#0CA941"/>
			<stop offset="0.500000" stop-color="#088733"/>
			<stop offset="1.000000" stop-color="#0CA941"/>
		</linearGradient>
		<linearGradient id="paint_linear_2_520_0" x1="22.596918" y1="21.759197" x2="20.749485" y2="27.189573" gradientUnits="userSpaceOnUse">
			<stop stop-color="#0CA941"/>
			<stop offset="0.500000" stop-color="#067E2F"/>
			<stop offset="1.000000" stop-color="#0CA941"/>
		</linearGradient>
		<linearGradient id="paint_linear_2_521_0" x1="8.946002" y1="16.329494" x2="12.993273" y2="20.613831" gradientUnits="userSpaceOnUse">
			<stop stop-color="#0CA941"/>
			<stop offset="0.500000" stop-color="#088733"/>
			<stop offset="1.000000" stop-color="#0CA941"/>
		</linearGradient>
		<linearGradient id="paint_linear_2_522_0" x1="19.050924" y1="12.817627" x2="24.560802" y2="11.224266" gradientUnits="userSpaceOnUse">
			<stop stop-color="#0CA941"/>
			<stop offset="0.500000" stop-color="#088733"/>
			<stop offset="1.000000" stop-color="#0CA941"/>
		</linearGradient>
	</defs>
	<rect id="Frame" width="36.522778" height="34.309277" fill="#FFFFFF" fill-opacity="0"/>
	<g clip-path="url(#clip2_509)">
		<path id="Vector" d="M18.2613 7.59033C16.3383 9.93848 15.3395 12.8623 15.4214 15.9431L15.4438 16.6909L14.0276 16.3545L12.9916 15.2703C13.0289 13.4978 13.3717 11.7629 14.0202 10.1028C15.25 6.93213 17.0463 5.27197 18.2687 4.04565L18.7532 6.01978L18.2613 7.59033Z" fill="#0CA941" fill-opacity="1.000000" fill-rule="nonzero"/>
		<path id="Vector" d="M14.6613 8.67456C14.4377 9.11572 14.2215 9.59424 14.0203 10.1104C13.4612 11.5537 13.1259 13.0493 13.0215 14.5823C14.0873 14.7991 14.9222 15.113 15.4216 15.3301C15.4662 13.2361 16.0104 11.2246 17.0017 9.44482C16.1222 8.96631 15.2799 8.75684 14.6613 8.67456Z" fill="url(#paint_linear_2_512_0)" fill-opacity="1.000000" fill-rule="nonzero"/>
		<path id="Vector" d="M8.99652 23.6978C12.0451 24.1987 15.0936 23.5481 17.6279 21.9854L18.2614 21.5964L18.7459 23.1968L18.2614 24.438C16.0402 25.657 13.5507 26.3 11.0239 26.3C8.79529 26.3 7.3269 25.8364 5.94055 25.4626L7.37164 24.1465L8.99652 23.6978Z" fill="#0CA941" fill-opacity="1.000000" fill-rule="nonzero"/>
		<path id="Vector" d="M11.5978 23.8474C12.1866 24.6699 12.4847 25.5374 12.6413 26.2104C14.6016 25.9937 16.5097 25.3955 18.2614 24.4307L18.2911 24.3484C18.1048 23.3689 17.747 22.5986 17.4414 22.0901C15.6749 23.1445 13.6699 23.7502 11.5978 23.8474Z" fill="url(#paint_linear_2_514_0)" fill-opacity="1.000000" fill-rule="nonzero"/>
		<path id="Vector" d="M27.5262 23.6975C26.4603 20.856 24.4329 18.5227 21.7347 17.0496L21.0788 16.6907L22.2714 15.5166L23.5311 15.2773C25.0441 16.1973 26.3708 17.3638 27.474 18.7546C29.5908 21.4094 30.1275 23.7949 30.5747 25.47L29.1063 25.1111L27.5262 23.6975Z" fill="#0CA941" fill-opacity="1.000000" fill-rule="nonzero"/>
		<path id="Vector" d="M22.5025 17.4985C24.2318 18.5977 25.6405 20.0784 26.6467 21.8208C27.4666 21.2673 28.0405 20.6167 28.4282 20.0708C28.1523 19.6372 27.8393 19.196 27.4815 18.7473C26.5126 17.5283 25.3721 16.4888 24.0901 15.6289C23.5162 16.459 22.9348 17.0872 22.5025 17.4985Z" fill="url(#paint_linear_2_516_0)" fill-opacity="1.000000" fill-rule="nonzero"/>
		<path id="Vector" d="M11.5894 34.3096C9.30109 34.3096 7.01282 32.8962 5.34326 31.2886C-3.92163 21.9932 -0.656921 6.25952 11.3881 1.36133C23.3586 -3.5144 36.5217 5.30981 36.5217 18.3364C36.5217 27.5793 29.7687 34.3096 24.9313 34.3096C21.0331 34.3096 18.7299 30.2864 19.5871 26.2334C21.1077 18.9946 25.5128 19.1067 27.7861 12.8625C23.2617 11.9429 20.7872 13.2812 18.2678 14.8293C15.7485 13.2812 13.2888 11.9429 8.74951 12.8625C11.0154 19.0994 15.428 19.0095 16.9485 26.2334C17.7908 30.2939 15.4876 34.3096 11.5894 34.3096ZM7.05011 29.5535C12.5732 34.6238 15.3162 30.3164 14.5634 26.7419C13.1472 19.9966 8.39178 20.595 6.01404 12.3242L5.6712 11.1277C9.17438 10.1855 13.1547 9.10864 18.2604 11.9875C20.5114 10.7239 22.6655 10.1255 25.0059 10.1255C27.3463 10.1255 29.2545 10.6938 30.8495 11.1277L30.5067 12.3242C28.129 20.595 23.3735 19.9966 21.9574 26.7419C21.2045 30.3088 23.9326 34.6387 29.4706 29.5535C35.6273 23.3618 35.6199 13.2964 29.4557 7.11206C23.2692 0.905273 13.2515 0.905273 7.065 7.11206C0.900879 13.2964 0.893433 23.3542 7.05011 29.5535Z" fill="#0CA941" fill-opacity="1.000000" fill-rule="nonzero"/>
		<path id="Vector" d="M21.8392 27.7734C21.8466 27.4294 21.8914 27.0779 21.9584 26.7339C22.4056 24.5952 23.1883 23.1968 24.1274 22.0154C23.0839 21.8284 22.2268 21.5366 21.623 21.2825C20.7733 22.5088 20.0428 24.0269 19.5807 26.2256C19.5286 26.4648 19.4913 26.7114 19.4615 26.9509C20.3708 27.4668 21.228 27.6836 21.8392 27.7734Z" fill="url(#paint_linear_2_520_0)" fill-opacity="1.000000" fill-rule="nonzero"/>
		<path id="Vector" d="M8.10944 17.0422C9.42871 19.054 10.912 20.2429 12.1567 21.731C12.7754 20.9534 13.394 20.3701 13.8562 19.9736C12.5667 18.5081 11.1431 17.3191 9.9505 15.3896C9.10822 15.9131 8.50446 16.5337 8.10944 17.0422Z" fill="url(#paint_linear_2_521_0)" fill-opacity="1.000000" fill-rule="nonzero"/>
		<path id="Vector" d="M24.9995 12.5554C24.91 11.6282 24.6417 10.7607 24.4031 10.1326C22.3758 10.2224 20.4677 10.7756 18.4924 11.8525C18.9545 12.8696 19.1036 13.7146 19.1334 14.2979C20.803 13.3333 22.5621 12.5554 24.9995 12.5554Z" fill="url(#paint_linear_2_522_0)" fill-opacity="1.000000" fill-rule="nonzero"/>
		<path id="Vector" d="M5.94055 25.4624C6.35052 23.9219 6.8797 21.4541 9.04126 18.7471C10.1519 17.3562 11.4711 16.1897 12.9843 15.2698L15.4365 16.6907L14.7806 17.0496C12.0749 18.5227 10.0549 20.8484 8.98907 23.6975L5.94055 25.4624Z" fill="#0CA941" fill-opacity="1.000000" fill-rule="nonzero"/>
		<path id="Vector" d="M30.5822 25.4626L29.412 25.7769C25.6031 26.8013 21.6378 26.2854 18.2614 24.4307L18.2614 21.5891L18.8949 21.978C21.4291 23.5408 24.4777 24.1841 27.5262 23.6904L30.5822 25.4626Z" fill="#0CA941" fill-opacity="1.000000" fill-rule="nonzero"/>
		<path id="Vector" d="M21.0788 16.6909L21.1012 15.9431C21.1832 12.8621 20.1769 9.93823 18.2614 7.59009L18.2614 4.05298L19.1185 4.91284C21.9733 7.7771 23.4491 11.5161 23.5311 15.27L21.0788 16.6909Z" fill="#0CA941" fill-opacity="1.000000" fill-rule="nonzero"/>
	</g>
</svg>
