<svg width="15.000000" height="20.000000" viewBox="0 0 15 20" fill="none" xmlns="http://www.w3.org/2000/svg" xmlns:xlink="http://www.w3.org/1999/xlink">
	<desc>
			Created with Pixso.
	</desc>
	<defs/>
	<path id="Vector" d="M7.96909 0C3.96078 0 0 2.74072 0 7.17651C0 9.99744 1.54694 11.6001 2.48447 11.6001C2.87137 11.6001 3.09387 10.4943 3.09387 10.182C3.09387 9.80957 2.16821 9.01587 2.16821 7.46497C2.16821 4.24353 4.55893 1.95923 7.65283 1.95923C10.3129 1.95923 12.2818 3.51001 12.2818 6.35913C12.2818 8.48694 11.4499 12.4778 8.75412 12.4778C7.78159 12.4778 6.94904 11.7566 6.94904 10.7231C6.94904 9.20813 7.98035 7.74194 7.98035 6.17896C7.98035 3.52673 4.31204 4.00757 4.31204 7.21301C4.31204 7.88623 4.39392 8.63123 4.68707 9.24475C4.14767 11.6251 3.04639 15.1711 3.04639 17.6233C3.04639 18.3805 3.15201 19.1261 3.22202 19.8832C3.35452 20.0358 3.28827 20.0198 3.49139 19.9435C5.46024 17.1785 5.39023 16.6379 6.28088 13.0195C6.76154 13.9575 8.00345 14.462 8.98788 14.462C13.1362 14.462 15 10.3147 15 6.57642C15 2.59778 11.648 0.00134277 7.96844 0.00134277L7.96909 0Z" fill="#678570" fill-opacity="0.530000" fill-rule="nonzero"/>
</svg>
