<svg width="39.277313" height="54.000000" viewBox="0 0 39.2773 54" fill="none" xmlns="http://www.w3.org/2000/svg" xmlns:xlink="http://www.w3.org/1999/xlink">
	<desc>
			Created with Pixso.
	</desc>
	<defs/>
	<path id="Vector" d="M36.2242 30.1451L30.0317 30.1451C35.8123 23.9081 36.0994 15.1859 35.9288 11.5384C35.8994 10.9083 35.5094 10.3716 34.9114 10.1373C34.3037 9.89909 33.6133 10.0387 33.1524 10.4927L27.4312 16.1266C27.1199 16.4331 27.1161 16.9339 27.4226 17.2452C27.7291 17.5563 28.2299 17.5601 28.5412 17.2537L34.2624 11.6198C34.2721 11.6103 34.2808 11.6017 34.3027 11.6039C34.3224 11.6043 34.3397 11.6116 34.3488 11.6175C34.5194 15.2776 34.2098 24.3349 27.7827 30.1451L23.758 30.1451C23.8274 29.9998 23.8942 29.8536 23.9604 29.7071C25.5133 28.1396 28.4311 24.9315 30.3637 21.1991C30.5645 20.8112 30.413 20.3338 30.025 20.133C29.6371 19.9321 29.1598 20.0836 28.9589 20.4718C27.924 22.4704 26.5639 24.3363 25.3102 25.8508C25.7662 24.0471 26.002 22.1967 26.002 20.3465C26.002 13.1639 22.5515 4.37495 21.068 0.929604C20.8247 0.364815 20.2637 0 19.6386 0C19.0135 0 18.4525 0.364815 18.2093 0.929497C16.7258 4.37485 13.2751 13.164 13.2751 20.3464C13.2751 22.1965 13.5111 24.047 13.967 25.8507C12.7134 24.3362 11.3533 22.4704 10.3183 20.4718C10.1174 20.0838 9.63983 19.9323 9.25226 20.133C8.86423 20.3338 8.71268 20.8113 8.91348 21.1991C10.8461 24.9315 13.764 28.1396 15.3168 29.7071C15.383 29.8536 15.4498 29.9998 15.5192 30.1451L11.4944 30.1451C5.06882 24.3364 4.7579 15.2822 4.92844 11.6174C4.93762 11.6115 4.9548 11.6043 4.97443 11.6039C4.99435 11.6015 5.00504 11.6104 5.01462 11.6198L10.7442 17.2619C11.0553 17.5682 11.5562 17.5646 11.8628 17.2533C12.1693 16.942 12.1655 16.4412 11.8543 16.1347L6.12457 10.4927C5.66379 10.0388 4.97318 9.89919 4.36566 10.1373C3.76755 10.3716 3.37775 10.9084 3.34833 11.5383C3.17767 15.1859 3.46475 23.9082 9.24539 30.1451L3.05301 30.1451C1.36951 30.1451 0 31.5146 0 33.198C0 34.8815 1.36951 36.251 3.05301 36.251L3.65796 36.251L7.1991 51.4362C7.55103 52.9457 8.87943 54 10.4295 54L28.8478 54C30.3978 54 31.7263 52.9457 32.0782 51.4362L35.6193 36.251L36.2243 36.251C37.9078 36.251 39.2773 34.8815 39.2773 33.198C39.2772 31.5147 37.9077 30.1451 36.2242 30.1451ZM19.6386 1.6105C21.096 5.00354 24.4199 13.4956 24.4199 20.3465C24.4199 24.5337 23.1474 27.9269 21.9913 30.1452L20.4296 30.1452L20.4296 14.7644C20.4296 14.3274 20.0756 13.9733 19.6386 13.9733C19.2016 13.9733 18.8476 14.3274 18.8476 14.7644L18.8476 30.1451L17.2859 30.1451C16.1298 27.9267 14.8572 24.5335 14.8572 20.3464C14.8572 13.4959 18.1811 5.00344 19.6386 1.6105ZM36.2242 34.6691L11.4649 34.6691C11.0279 34.6691 10.6739 35.0231 10.6739 35.4601C10.6739 35.897 11.0279 36.2511 11.4649 36.2511L33.9949 36.2511L30.5375 51.0769C30.3534 51.8665 29.6586 52.418 28.8478 52.418L10.4295 52.418C9.61865 52.418 8.92392 51.8665 8.73978 51.0769L5.28241 36.2511L7.76724 36.2511C8.20419 36.2511 8.55826 35.897 8.55826 35.4601C8.55826 35.0231 8.20419 34.6691 7.76724 34.6691L3.05301 34.6691C2.24194 34.6691 1.58203 34.0091 1.58203 33.1981C1.58203 32.387 2.24194 31.7272 3.05301 31.7272L36.2242 31.7272C37.0352 31.7272 37.6952 32.387 37.6952 33.1981C37.6952 34.0091 37.0352 34.6691 36.2242 34.6691Z" fill="#0CA941" fill-opacity="1.000000" fill-rule="nonzero"/>
</svg>
