<svg width="52.000000" height="52.000000" viewBox="0 0 52 52" fill="none" xmlns="http://www.w3.org/2000/svg" xmlns:xlink="http://www.w3.org/1999/xlink">
	<desc>
			Created with Pixso.
	</desc>
	<defs>
		<clipPath id="clip2_736">
			<rect id="plant 1" width="52.000000" height="52.000000" fill="white" fill-opacity="0"/>
		</clipPath>
	</defs>
	<rect id="plant 1" width="52.000000" height="52.000000" fill="#FFFFFF" fill-opacity="0"/>
	<g clip-path="url(#clip2_736)">
		<path id="Vector" d="M51.8821 40.1391C51.3825 38.2944 49.4823 37.2035 47.6377 37.7023L42.9243 39.1448C43.5514 36.3274 42.0681 33.4659 39.4042 32.3543C39.8357 31.0421 39.6115 29.6029 38.8019 28.4842C37.9927 27.3655 36.6957 26.7027 35.3145 26.7022C35.2283 26.7022 35.1421 26.7022 35.0563 26.7098C34.3825 24.4619 32.4681 22.8077 30.1465 22.4671L30.1465 21.2386C30.1449 20.5531 30.4174 19.8949 30.9036 19.4112L33.2293 17.0854C34.3645 18.0027 35.7784 18.5045 37.2378 18.5082C39.408 18.4346 41.4586 17.4985 42.9357 15.907C45.7153 13.1258 48.3527 2.67795 48.6437 1.4953C48.7156 1.20259 48.6294 0.893463 48.4162 0.680664C48.2034 0.467438 47.8942 0.38121 47.6015 0.453125C46.4189 0.744171 35.9736 3.38156 33.1898 6.16112C30.1974 9.15433 29.7693 13.032 32.0105 15.8683L29.6848 18.1941C29.257 18.6247 28.9256 19.1416 28.7124 19.7098C28.3806 19.3502 27.9995 19.0394 27.5806 18.7867L24.6459 17.0295C25.4176 15.4621 25.5055 13.6452 24.889 12.0104C24.1513 10.1944 22.8076 8.69002 21.0862 7.75299C17.6804 5.78807 6.90368 5.94411 5.68907 5.96892C5.38752 5.97523 5.11121 6.13841 4.96064 6.39958C4.80965 6.66034 4.80629 6.98166 4.95181 7.24577C5.54018 8.31192 10.7906 17.7226 14.1955 19.6884C15.5355 20.4875 17.0613 20.9223 18.6212 20.9492C19.0107 20.9497 19.3997 20.9177 19.7841 20.8538C21.3528 20.5955 22.7655 19.7523 23.7375 18.4935L26.697 20.2637C27.5117 20.757 28.0958 21.5557 28.3187 22.4818C25.4046 22.9575 23.2622 25.4721 23.2559 28.4249L23.2559 28.485C21.5248 28.2386 19.7719 28.7546 18.4505 29.8994C17.129 31.0442 16.3682 32.7055 16.3653 34.4542L16.0982 34.4542C14.1447 34.4555 12.1957 34.6397 10.2767 35.0047C9.08308 35.2394 7.93787 35.6755 6.89064 36.2938L6.89064 33.5929C6.89064 33.1172 6.50497 32.7315 6.02931 32.7315L0.861328 32.7315C0.385666 32.7315 0 33.1172 0 33.5929L0 50.8195C0 51.2951 0.385666 51.6808 0.861328 51.6808L6.02931 51.6808C6.50497 51.6808 6.89064 51.2951 6.89064 50.8195L6.89064 48.063C8.00053 48.7536 9.22607 49.2368 10.5084 49.4904C12.1608 49.8021 13.8393 49.9586 15.5212 49.9581L27.8814 49.9581C29.4673 49.9565 31.0462 49.7474 32.5783 49.3369L49.4491 44.3595C51.2861 43.8657 52.3754 41.9761 51.8821 40.1391ZM34.4095 7.37741C36.2179 5.56854 42.8907 3.49471 46.6064 2.49037C45.603 6.20233 43.5249 12.8806 41.7194 14.6874C39.7764 16.6287 36.8744 17.6305 34.4599 15.8544L37.0166 13.2982L38.897 14.2386C39.3222 14.4527 39.8407 14.2815 40.0548 13.8559C40.2689 13.4303 40.0977 12.9117 39.6721 12.6976L38.3044 12.0146L40.0615 10.2507L41.9469 11.1983C42.3721 11.4124 42.8907 11.2408 43.1048 10.8156C43.3188 10.39 43.1477 9.8714 42.722 9.65733L41.3438 8.97012L43.5447 6.76843C43.7684 6.55225 43.8584 6.23178 43.7794 5.93065C43.7007 5.62952 43.4656 5.39442 43.1641 5.31578C42.8629 5.23671 42.5429 5.32671 42.3267 5.55045L40.1267 7.75299L39.4437 6.38361C39.2309 5.95799 38.7132 5.78555 38.288 5.99837C37.8624 6.21117 37.6899 6.7289 37.9027 7.15408L38.8461 9.03531L37.0847 10.7967L36.4017 9.42896C36.1885 9.00375 35.6712 8.83133 35.2456 9.04413C34.8199 9.25694 34.6479 9.77425 34.8607 10.1999L35.8011 12.0802L33.2449 14.6365C31.465 12.2232 32.4723 9.31961 34.4095 7.37741ZM19.4973 19.1542C17.9508 19.3565 16.3825 19.018 15.0569 18.1966C12.8468 16.921 9.11378 11.0103 7.17831 7.67981C11.0286 7.68906 18.0148 7.97 20.2249 9.24559C22.6574 10.6503 24.4091 13.2776 23.1621 16.1421L20.0688 14.2937L20.5205 12.0861C20.603 11.626 20.3031 11.184 19.8447 11.0902C19.3867 10.9968 18.9375 11.2858 18.8332 11.7417L18.5022 13.3567L16.3489 12.0718L16.7863 9.9328C16.8691 9.4727 16.5692 9.03067 16.1108 8.93689C15.6528 8.84352 15.2037 9.13246 15.0989 9.58835L14.7822 11.139L12.112 9.53999C11.7037 9.29605 11.1746 9.42896 10.9302 9.83733C10.6859 10.2457 10.8192 10.7748 11.2276 11.0191L13.8974 12.6152L12.7917 13.596C12.435 13.9118 12.4014 14.4569 12.7172 14.8135C13.0327 15.1706 13.5777 15.2038 13.9348 14.888L15.448 13.5464L17.5753 14.8186L16.5221 15.7531C16.1651 16.0685 16.1319 16.6132 16.4473 16.9698C16.7623 17.3269 17.3074 17.3605 17.664 17.0451L19.1284 15.7531L22.2457 17.6179C21.5391 18.438 20.5655 18.9822 19.4973 19.1542ZM22.3946 30.1476C22.9253 30.1433 23.4519 30.2422 23.9448 30.4386C24.2447 30.5597 24.5874 30.5029 24.8318 30.291C25.0766 30.0794 25.1817 29.7484 25.1043 29.4343C25.0219 29.1041 24.9798 28.7651 24.9786 28.4249C24.9777 26.1677 26.7214 24.2936 28.9727 24.1317C31.2241 23.9702 33.2176 25.5755 33.5393 27.81C33.5734 28.0586 33.7147 28.2802 33.9254 28.4165C34.1365 28.5527 34.3969 28.5902 34.6374 28.5187C34.8574 28.4552 35.0857 28.4236 35.3145 28.4249C36.7415 28.4249 37.8985 29.5819 37.8985 31.0089C37.8994 31.5026 37.756 31.9863 37.4859 32.3997C37.3324 32.6361 37.3043 32.9322 37.4098 33.1929C37.5154 33.4537 37.7421 33.6463 38.0167 33.709C39.9597 34.1703 41.335 35.9022 41.3438 37.8995C41.3472 38.5434 41.2038 39.1797 40.9245 39.7601L36.6927 41.0563C36.4816 39.7105 35.4929 38.6174 34.1748 38.2734L30.3884 37.2619L23.049 35.1086C22.5325 34.958 22.0043 34.8424 21.4748 34.7435C21.511 34.651 21.5307 34.5535 21.5332 34.4542C21.5332 33.9785 21.9189 33.5929 22.3946 33.5929C22.4825 33.5895 22.57 33.603 22.6528 33.6324C23.0931 33.8069 23.5915 33.5937 23.769 33.1546C23.9465 32.716 23.7366 32.2159 23.2988 32.0355C23.0111 31.9224 22.7041 31.866 22.3946 31.8702C20.9676 31.8702 19.8106 33.0272 19.8106 34.4542C19.8106 34.4765 19.8219 34.4954 19.8236 34.5177C19.3669 34.479 18.9089 34.4542 18.4496 34.4542L18.0879 34.4542C18.0909 32.0767 20.0171 30.1505 22.3946 30.1476ZM5.16798 49.9581L1.72266 49.9581L1.72266 34.4542L5.16798 34.4542L5.16798 49.9581ZM48.9814 42.6978L32.1131 47.679C30.7324 48.0466 29.31 48.2338 27.8814 48.2355L15.5212 48.2355C13.9482 48.2346 12.3787 48.0866 10.8331 47.7934C9.72571 47.5748 8.66882 47.1525 7.7158 46.5481L6.89064 46.0312L6.89064 38.3394L6.98443 38.2726C8.06277 37.492 9.29673 36.9536 10.6022 36.6937C12.414 36.3501 14.254 36.1773 16.0982 36.1768L18.4496 36.1768C19.8426 36.1764 21.2283 36.3737 22.5662 36.7623L29.9245 38.9211L33.729 39.9372C34.642 40.1756 35.1896 41.1085 34.9528 42.0219L34.9528 42.0337L34.9478 42.0443L34.9478 42.0518C34.7421 42.8029 34.0604 43.3245 33.2819 43.3257C33.133 43.3266 32.9846 43.3076 32.8407 43.269L22.6091 40.5298C22.3088 40.4406 21.9837 40.5214 21.7599 40.7409C21.5366 40.9604 21.45 41.2838 21.5337 41.5858C21.6174 41.8878 21.8584 42.1204 22.1628 42.1931L32.3962 44.9331C32.6851 45.0105 32.9829 45.0492 33.2819 45.0484C34.6685 45.0433 35.9176 44.2089 36.453 42.9295L48.1087 39.3635C49.0302 39.1217 49.974 39.6705 50.22 40.5912C50.2583 40.7367 50.2772 40.8868 50.2759 41.0374C50.2705 41.8201 49.7393 42.5018 48.9814 42.6978Z" fill="#0CA941" fill-opacity="1.000000" fill-rule="nonzero"/>
		<path id="Vector" d="M27.6093 29.6805C27.8738 29.6805 28.1236 29.5585 28.2873 29.3504C28.4504 29.1422 28.5089 28.8701 28.4454 28.6131C28.4307 28.5513 28.4235 28.4882 28.4239 28.4247C28.4239 27.949 28.8096 27.5634 29.2853 27.5634C29.7046 27.56 30.0629 27.8649 30.1268 28.2792C30.1554 28.5067 30.2745 28.7128 30.4574 28.8512C30.6399 28.9899 30.8708 29.0488 31.0975 29.0148C31.5677 28.9491 31.8966 28.5155 31.8322 28.0449C31.6379 26.7045 30.4402 25.7431 29.0897 25.8428C27.7393 25.9429 26.6962 27.0704 26.7013 28.4247C26.7 28.6278 26.7244 28.8305 26.7736 29.0274C26.8695 29.4109 27.214 29.6805 27.6093 29.6805Z" fill="#0CA941" fill-opacity="1.000000" fill-rule="nonzero"/>
		<path id="Vector" d="M36.5998 36.0361C36.5481 36.259 36.5876 36.4932 36.7092 36.6871C36.8307 36.881 37.0242 37.019 37.2475 37.0698C37.6281 37.1653 37.896 37.5064 37.8986 37.8992C37.8986 38.3749 38.2842 38.7605 38.7599 38.7605C39.2356 38.7605 39.6212 38.3749 39.6212 37.8992C39.617 36.7031 38.7944 35.6651 37.6307 35.3884C37.1672 35.2828 36.7058 35.5726 36.5998 36.0361Z" fill="#0CA941" fill-opacity="1.000000" fill-rule="nonzero"/>
		<path id="Vector" d="M30.846 32.3738C29.612 32.0398 28.32 32.664 27.8141 33.8382C27.6295 34.2764 27.8351 34.782 28.2738 34.9666C28.712 35.1516 29.2175 34.946 29.4026 34.5073C29.5696 34.1221 29.996 33.9198 30.3998 34.0342C30.621 34.0935 30.8094 34.2386 30.9234 34.4371C31.0373 34.6356 31.0681 34.8711 31.0079 35.0919C30.8847 35.5516 31.1572 36.0239 31.6169 36.1471C31.6901 36.1665 31.7654 36.1766 31.8406 36.1766C32.2305 36.1761 32.5712 35.9146 32.6721 35.5381C33.0388 34.1604 32.2225 32.7455 30.846 32.3738Z" fill="#0CA941" fill-opacity="1.000000" fill-rule="nonzero"/>
		<path id="Vector" d="M34.4532 31.0086C34.9289 31.0086 35.3146 31.3942 35.3146 31.8699C35.3146 32.3456 35.7002 32.7312 36.1759 32.7312C36.6516 32.7312 37.0372 32.3456 37.0372 31.8699C37.0372 30.4429 35.8802 29.2859 34.4532 29.2859C33.9776 29.2859 33.5919 29.6716 33.5919 30.1472C33.5919 30.6229 33.9776 31.0086 34.4532 31.0086Z" fill="#0CA941" fill-opacity="1.000000" fill-rule="nonzero"/>
	</g>
</svg>
