<svg width="50.241180" height="52.015564" viewBox="0 0 50.2412 52.0156" fill="none" xmlns="http://www.w3.org/2000/svg" xmlns:xlink="http://www.w3.org/1999/xlink">
	<desc>
			Created with Pixso.
	</desc>
	<defs/>
	<path id="Shape" d="M5.29269 36.8577C4.35239 34.7965 0 34.0846 0 34.0846C0.891876 32.1525 2.97739 31.0308 5.11725 31.3322L5.29269 36.8577Z" fill="#F3D55B" fill-opacity="1.000000" fill-rule="nonzero"/>
	<path id="Shape" d="M6.39648 39.3831L7.94992 39.3831C10.0019 39.1961 11.948 40.3093 12.793 42.1534C12.793 42.1534 8.63528 42.8348 7.56613 44.7893L6.39648 39.3831Z" fill="#F3D55B" fill-opacity="1.000000" fill-rule="nonzero"/>
	<path id="Shape" d="M11.8793 5.43079L11.8793 5.39493C11.8793 5.39493 10.7745 -0.336731 2.71213 0.0155945C2.41772 0.02771 2.14709 0.177521 1.98431 0.418488C1.82153 0.659454 1.78635 0.962402 1.88971 1.23312C3.311 4.96268 7.021 7.36786 11.0752 7.18802L11.8793 5.43079Z" fill="#24AE5F" fill-opacity="1.000000" fill-rule="nonzero"/>
	<path id="Shape" d="M14.2249 6.53088C16.5063 6.76105 18.321 8.51068 18.5956 10.7447C18.5956 10.7447 15.2419 10.2516 13.3778 11.2557L11.8792 11.2557L14.2249 6.53088Z" fill="#F3D55B" fill-opacity="1.000000" fill-rule="nonzero"/>
	<path id="Shape" d="M12.1716 14.925C12.5463 13.6699 12.9483 12.4416 13.3687 11.2581L13.3778 11.2581C13.9275 9.72772 14.5557 8.22556 15.2602 6.75748C15.644 5.96851 16.0461 5.21539 16.4664 4.4892C16.7956 3.93915 16.7995 3.25833 16.4768 2.70465C16.1541 2.15097 15.554 1.80908 14.9038 1.8085L14.8947 1.8085C14.2483 1.80441 13.649 2.13947 13.323 2.68713C12.8204 3.55679 12.3361 4.47125 11.8792 5.4216L11.8792 5.43057C11.605 6.00436 11.3309 6.58713 11.075 7.18781C10.2801 9.05264 9.55817 11.034 8.91852 13.0871L7.40161 18.6637L7.40161 18.6726C4.13022 32.4078 3.71902 47.2637 3.66418 51.1099C3.66 51.3497 3.75464 51.5811 3.92664 51.7515C4.09866 51.922 4.3335 52.0171 4.578 52.0154L6.40558 52.0154C6.9032 52.0155 7.30942 51.6249 7.31937 51.1367C7.50873 41.2919 8.55426 31.4809 10.4445 21.8106L12.1716 14.925Z" fill="#4FBA6F" fill-opacity="1.000000" fill-rule="nonzero"/>
	<path id="Rectangle path" d="M21.9301 29.7723L27.4128 29.7723L27.4128 35.2234L21.9301 35.2234L21.9301 29.7723Z" fill="#7F8C8D" fill-opacity="1.000000" fill-rule="nonzero"/>
	<path id="Shape" d="M28.4545 21.2283C28.9669 19.2774 29.2312 17.2718 29.2412 15.2572C29.2412 8.82001 25.9699 1.80896 21.9309 1.80896L21.9309 20.4572L28.4545 21.2283Z" fill="#7F8C8D" fill-opacity="1.000000" fill-rule="nonzero"/>
	<path id="Rectangle path" d="M27.4054 29.7557L30.1445 25.1011L34.9519 27.8244L32.2128 32.479L27.4054 29.7557Z" fill="#547580" fill-opacity="1.000000" fill-rule="nonzero"/>
	<path id="Shape" d="M19.3441 26.3832C17.3648 25.8466 15.4616 25.0695 13.6786 24.0701C8.00397 20.8514 3.44415 14.5666 5.46362 11.1328L21.9311 20.457L19.3441 26.3832Z" fill="#547580" fill-opacity="1.000000" fill-rule="nonzero"/>
	<path id="Rectangle path" d="M22.8439 34.9811L26.4991 34.9811C27.5085 34.9811 28.3267 35.7839 28.3267 36.7742L28.3267 50.2225C28.3267 51.2128 27.5085 52.0156 26.4991 52.0156L22.8439 52.0156C21.8346 52.0156 21.0164 51.2128 21.0164 50.2225L21.0164 36.7742C21.0164 35.7839 21.8346 34.9811 22.8439 34.9811Z" fill="#F0C419" fill-opacity="1.000000" fill-rule="evenodd"/>
	<path id="Rectangle path" d="M49.3273 37.0134L47.4997 40.119C46.995 40.9767 45.8773 41.2705 45.0032 40.7753L33.1331 34.0512C32.259 33.556 31.9595 32.4594 32.4642 31.6018L34.2917 28.4962C34.7964 27.6385 35.9141 27.3447 36.7882 27.8399L48.6584 34.564C49.5325 35.0592 49.832 36.1558 49.3273 37.0134Z" fill="#F0C419" fill-opacity="1.000000" fill-rule="evenodd"/>
	<path id="Shape" d="M30.1552 25.119C30.156 27.0396 29.1105 28.8142 27.4138 29.7721C25.7195 30.7403 23.6255 30.7403 21.9311 29.7721C20.6341 29.0358 19.6999 27.8116 19.345 26.3831C19.2417 25.9694 19.1896 25.545 19.1897 25.119C19.1889 23.1984 20.2344 21.4238 21.9311 20.4659L21.9311 20.4569C23.6284 19.4987 25.7175 19.5005 27.4131 20.4617C29.1086 21.4228 30.1537 23.1977 30.1552 25.119Z" fill="#95A5A5" fill-opacity="1.000000" fill-rule="nonzero"/>
	<path id="Oval" d="M26.4991 25.1189C26.4991 26.1092 25.6808 26.912 24.6714 26.912C23.6621 26.912 22.8439 26.1092 22.8439 25.1189C22.8439 24.1286 23.6621 23.3258 24.6714 23.3258C25.6808 23.3258 26.4991 24.1286 26.4991 25.1189Z" fill="#547580" fill-opacity="1.000000" fill-rule="evenodd"/>
</svg>
