<svg width="135.831635" height="132.040588" viewBox="0 0 135.832 132.041" fill="none" xmlns="http://www.w3.org/2000/svg" xmlns:xlink="http://www.w3.org/1999/xlink">
	<desc>
			Created with Pixso.
	</desc>
	<defs/>
	<path id="Vector" d="M90.3141 26.7575C67.1586 12.2636 45.8202 25.5519 29.3403 37.3994C15.6666 47.2295 5.5365 62.3173 15.782 80.3389C25.8744 98.0912 49.1313 105.943 69.4143 107.889C89.5977 109.825 108.723 105.52 112.811 89.6474C118.057 69.2856 114.473 41.8795 90.3141 26.7575Z" fill="#F0C419" fill-opacity="0.090000" fill-rule="evenodd"/>
	<path id="Shape" d="M48.088 76.8698C47.1477 74.8086 42.7953 74.0967 42.7953 74.0967C43.6872 72.1646 45.7727 71.0429 47.9125 71.3443L48.088 76.8698Z" fill="#F3D55B" fill-opacity="1.000000" fill-rule="nonzero"/>
	<path id="Shape" d="M49.1918 79.3954L50.7452 79.3954C52.7971 79.2084 54.7433 80.3217 55.5883 82.1657C55.5883 82.1657 51.4306 82.8471 50.3614 84.8016L49.1918 79.3954Z" fill="#F3D55B" fill-opacity="1.000000" fill-rule="nonzero"/>
	<path id="Shape" d="M54.6746 45.443L54.6746 45.4071C54.6746 45.4071 53.5698 39.6755 45.5074 40.0278C45.213 40.0399 44.9424 40.1897 44.7796 40.4307C44.6168 40.6717 44.5816 40.9746 44.685 41.2453C46.1063 44.9749 49.8163 47.3801 53.8705 47.2002L54.6746 45.443Z" fill="#24AE5F" fill-opacity="1.000000" fill-rule="nonzero"/>
	<path id="Shape" d="M57.0203 46.5431C59.3017 46.7733 61.1165 48.5229 61.391 50.7569C61.391 50.7569 58.0373 50.2638 56.1732 51.2679L54.6746 51.2679L57.0203 46.5431Z" fill="#F3D55B" fill-opacity="1.000000" fill-rule="nonzero"/>
	<path id="Shape" d="M54.967 54.9374C55.3417 53.6822 55.7437 52.4539 56.1641 51.2705L56.1732 51.2705C56.7229 49.7401 57.3511 48.2379 58.0556 46.7698C58.4394 45.9808 58.8415 45.2277 59.2618 44.5015C59.591 43.9515 59.5949 43.2707 59.2722 42.717C58.9495 42.1633 58.3494 41.8214 57.6992 41.8208L57.6901 41.8208C57.0437 41.8167 56.4444 42.1518 56.1184 42.6995C55.6158 43.5691 55.1315 44.4836 54.6746 45.4339L54.6746 45.4429C54.4005 46.0167 54.1263 46.5995 53.8705 47.2001C53.0755 49.065 52.3536 51.0464 51.7139 53.0995L50.197 58.676L50.197 58.685C46.9256 72.4201 46.5144 87.276 46.4596 91.1222C46.4554 91.362 46.55 91.5934 46.722 91.7638C46.8941 91.9343 47.1289 92.0294 47.3734 92.0277L49.201 92.0277C49.6986 92.0278 50.1048 91.6372 50.1148 91.1491C50.3041 81.3043 51.3497 71.4933 53.24 61.8229L54.967 54.9374Z" fill="#4FBA6F" fill-opacity="1.000000" fill-rule="nonzero"/>
	<path id="Rectangle path" d="M64.7253 69.7844L70.2081 69.7844L70.2081 75.2354L64.7253 75.2354L64.7253 69.7844Z" fill="#7F8C8D" fill-opacity="1.000000" fill-rule="nonzero"/>
	<path id="Shape" d="M71.2499 61.2405C71.7624 59.2896 72.0266 57.284 72.0367 55.2694C72.0367 48.8322 68.7653 41.8212 64.7263 41.8212L64.7263 60.4695L71.2499 61.2405Z" fill="#7F8C8D" fill-opacity="1.000000" fill-rule="nonzero"/>
	<path id="Rectangle path" d="M70.2008 69.7681L72.9399 65.1135L77.7473 67.8367L75.0082 72.4913L70.2008 69.7681Z" fill="#547580" fill-opacity="1.000000" fill-rule="nonzero"/>
	<path id="Shape" d="M62.1394 66.3954C60.1601 65.8588 58.2569 65.0818 56.4739 64.0823C50.7993 60.8636 46.2394 54.5788 48.2589 51.145L64.7264 60.4692L62.1394 66.3954Z" fill="#547580" fill-opacity="1.000000" fill-rule="nonzero"/>
	<path id="Rectangle path" d="M65.6392 74.9932L69.2944 74.9932C70.3037 74.9932 71.122 75.796 71.122 76.7863L71.122 90.2346C71.122 91.2249 70.3037 92.0276 69.2944 92.0276L65.6392 92.0276C64.6299 92.0276 63.8116 91.2249 63.8116 90.2346L63.8116 76.7863C63.8116 75.796 64.6299 74.9932 65.6392 74.9932Z" fill="#F0C419" fill-opacity="1.000000" fill-rule="evenodd"/>
	<path id="Rectangle path" d="M92.1227 77.0257L90.2951 80.1314C89.7904 80.989 88.6727 81.2828 87.7986 80.7877L75.9285 74.0635C75.0544 73.5684 74.7549 72.4717 75.2596 71.6141L77.0872 68.5085C77.5918 67.6509 78.7095 67.3571 79.5836 67.8522L91.4538 74.5764C92.3279 75.0715 92.6274 76.1681 92.1227 77.0257Z" fill="#F0C419" fill-opacity="1.000000" fill-rule="evenodd"/>
	<path id="Shape" d="M72.9505 65.1312C72.9513 67.0518 71.9058 68.8264 70.2091 69.7843C68.5147 70.7525 66.4207 70.7525 64.7264 69.7843C63.4294 69.048 62.4952 67.8238 62.1403 66.3953C62.037 65.9816 61.9849 65.5572 61.985 65.1312C61.9842 63.2106 63.0297 61.436 64.7264 60.4781L64.7264 60.4691C66.4237 59.5109 68.5128 59.5127 70.2084 60.4739C71.9039 61.435 72.9489 63.2099 72.9505 65.1312Z" fill="#95A5A5" fill-opacity="1.000000" fill-rule="nonzero"/>
	<path id="Oval" d="M69.2945 65.1313C69.2945 66.1216 68.4762 66.9243 67.4669 66.9243C66.4575 66.9243 65.6393 66.1216 65.6393 65.1313C65.6393 64.1409 66.4575 63.3381 67.4669 63.3381C68.4762 63.3381 69.2945 64.1409 69.2945 65.1313Z" fill="#547580" fill-opacity="1.000000" fill-rule="evenodd"/>
</svg>
