<svg width="125.276489" height="23.648071" viewBox="0 0 125.276 23.6481" fill="none" xmlns="http://www.w3.org/2000/svg" xmlns:xlink="http://www.w3.org/1999/xlink">
	<desc>
			Created with Pixso.
	</desc>
	<defs/>
	<path id="Star 1" d="M10.873 2.92706L9.39392 7.47925C9.26001 7.89124 8.87604 8.17023 8.44281 8.17023L3.65637 8.17023C2.68768 8.17023 2.28491 9.40985 3.0686 9.97925L6.94092 12.7926C7.29138 13.0473 7.43805 13.4987 7.3042 13.9106L5.82507 18.4628C5.52576 19.3842 6.5802 20.1503 7.36395 19.5809L11.2363 16.7675C11.5867 16.5128 12.0613 16.5128 12.4118 16.7675L16.2841 19.5809C17.0679 20.1503 18.1223 19.3842 17.823 18.4628L16.3439 13.9106C16.21 13.4987 16.3567 13.0472 16.7072 12.7926L20.5795 9.97925C21.3632 9.40985 20.9604 8.17023 19.9917 8.17023L15.2053 8.17023C14.772 8.17023 14.3881 7.89124 14.2542 7.47925L12.7751 2.92706C12.4758 2.00574 11.1724 2.00574 10.873 2.92706Z" fill="#FFD700" fill-opacity="1.000000" fill-rule="evenodd"/>
	<path id="Star 2" d="M36.2801 2.92706L34.801 7.47925C34.6671 7.89124 34.2831 8.17023 33.8499 8.17023L29.0635 8.17023C28.0948 8.17023 27.692 9.40985 28.4757 9.97925L32.348 12.7926C32.6985 13.0473 32.8452 13.4987 32.7113 13.9106L31.2322 18.4628C30.9329 19.3842 31.9873 20.1503 32.7711 19.5809L36.6434 16.7675C36.9938 16.5128 37.4684 16.5128 37.8189 16.7675L41.6913 19.5809C42.4749 20.1503 43.5294 19.3842 43.2301 18.4628L41.751 13.9106C41.6171 13.4987 41.7638 13.0472 42.1143 12.7926L45.9866 9.97925C46.7703 9.40985 46.3675 8.17023 45.3988 8.17023L40.6123 8.17023C40.1791 8.17023 39.7952 7.89124 39.6613 7.47925L38.1822 2.92706C37.8828 2.00574 36.5795 2.00574 36.2801 2.92706Z" fill="#FFD700" fill-opacity="1.000000" fill-rule="evenodd"/>
	<path id="Star 3" d="M61.6872 2.92706L60.2081 7.47925C60.0742 7.89124 59.6903 8.17023 59.257 8.17023L54.4706 8.17023C53.5019 8.17023 53.0991 9.40985 53.8828 9.97925L57.7551 12.7926C58.1056 13.0473 58.2523 13.4987 58.1184 13.9106L56.6393 18.4628C56.34 19.3842 57.3944 20.1503 58.1782 19.5809L62.0505 16.7675C62.4009 16.5128 62.8755 16.5128 63.226 16.7675L67.0984 19.5809C67.882 20.1503 68.9366 19.3842 68.6372 18.4628L67.1581 13.9106C67.0242 13.4987 67.1709 13.0472 67.5214 12.7926L71.3937 9.97925C72.1774 9.40985 71.7746 8.17023 70.8059 8.17023L66.0194 8.17023C65.5862 8.17023 65.2023 7.89124 65.0684 7.47925L63.5893 2.92706C63.2899 2.00574 61.9865 2.00574 61.6872 2.92706Z" fill="#FFD700" fill-opacity="1.000000" fill-rule="evenodd"/>
	<path id="Star 4" d="M87.0943 2.92706L85.6152 7.47925C85.4813 7.89124 85.0974 8.17023 84.6642 8.17023L79.8777 8.17023C78.909 8.17023 78.5062 9.40985 79.2899 9.97925L83.1622 12.7926C83.5127 13.0473 83.6594 13.4987 83.5255 13.9106L82.0464 18.4628C81.7471 19.3842 82.8015 20.1503 83.5853 19.5809L87.4576 16.7675C87.808 16.5128 88.2827 16.5128 88.6331 16.7675L92.5055 19.5809C93.2892 20.1503 94.3437 19.3842 94.0443 18.4628L92.5652 13.9106C92.4313 13.4987 92.578 13.0472 92.9285 12.7926L96.8008 9.97925C97.5845 9.40985 97.1817 8.17023 96.213 8.17023L91.4265 8.17023C90.9933 8.17023 90.6094 7.89124 90.4755 7.47925L88.9964 2.92706C88.6971 2.00574 87.3936 2.00574 87.0943 2.92706Z" fill="#FFD700" fill-opacity="1.000000" fill-rule="evenodd"/>
	<path id="Star 5" d="M112.501 2.92706L111.022 7.47925C110.888 7.89124 110.504 8.17023 110.071 8.17023L105.285 8.17023C104.316 8.17023 103.913 9.40985 104.697 9.97925L108.569 12.7926C108.92 13.0473 109.066 13.4987 108.933 13.9106L107.454 18.4628C107.154 19.3842 108.209 20.1503 108.992 19.5809L112.865 16.7675C113.215 16.5128 113.69 16.5128 114.04 16.7675L117.913 19.5809C118.696 20.1503 119.751 19.3842 119.451 18.4628L117.972 13.9106C117.838 13.4987 117.985 13.0472 118.336 12.7926L122.208 9.97925C122.992 9.40985 122.589 8.17023 121.62 8.17023L116.834 8.17023C116.4 8.17023 116.016 7.89124 115.883 7.47925L114.404 2.92706C114.104 2.00574 112.801 2.00574 112.501 2.92706Z" fill="#FFD700" fill-opacity="1.000000" fill-rule="evenodd"/>
</svg>
