<svg width="38" height="35" viewBox="0 0 38 35" fill="none" xmlns="http://www.w3.org/2000/svg">
<g clip-path="url(#clip0_2_509)">
<path d="M19.167 7.7421C17.244 10.0902 16.2452 13.0141 16.3272 16.0951L16.3495 16.8429L14.9333 16.5064L13.8973 15.4221C13.9345 13.6498 14.2774 11.9149 14.9259 10.2547C16.1557 7.08404 17.9521 5.42391 19.1744 4.19751L19.6589 6.17171L19.167 7.7421Z" fill="#0CA941"/>
<path d="M15.5669 8.82642C15.3433 9.26762 15.1272 9.74622 14.9259 10.2622C14.3669 11.7055 14.0315 13.2011 13.9271 14.7341C14.993 14.9509 15.8278 15.265 16.3272 15.4819C16.3719 13.388 16.916 11.3764 17.9074 9.59665C17.0278 9.11806 16.1856 8.90867 15.5669 8.82642Z" fill="url(#paint0_linear_2_509)"/>
<path d="M9.90218 23.8496C12.9507 24.3507 15.9992 23.7001 18.5335 22.1372L19.167 21.7483L19.6515 23.3486L19.167 24.5899C16.9459 25.8089 14.4563 26.452 11.9296 26.452C9.70093 26.452 8.23257 25.9883 6.84619 25.6144L8.27729 24.2983L9.90218 23.8496Z" fill="#0CA941"/>
<path d="M12.5034 23.9993C13.0923 24.8219 13.3904 25.6893 13.5469 26.3624C15.5072 26.1455 17.4154 25.5472 19.167 24.5826L19.1968 24.5003C19.0104 23.5207 18.6527 22.7505 18.3471 22.2419C16.5806 23.2963 14.5755 23.9021 12.5034 23.9993Z" fill="url(#paint1_linear_2_509)"/>
<path d="M28.4318 23.8495C27.366 21.0078 25.3386 18.6747 22.6404 17.2015L21.9844 16.8426L23.177 15.6685L24.4367 15.4292C25.9498 16.349 27.2765 17.5156 28.3796 18.9065C30.4965 21.5612 31.0331 23.9467 31.4804 25.6218L30.012 25.2628L28.4318 23.8495Z" fill="#0CA941"/>
<path d="M23.4081 17.6503C25.1374 18.7495 26.5461 20.2302 27.5524 21.9726C28.3723 21.4192 28.9462 20.7686 29.3338 20.2227C29.058 19.789 28.7449 19.3478 28.3872 18.8991C27.4182 17.6802 26.2778 16.6407 24.9958 15.7808C24.4218 16.6108 23.8405 17.239 23.4081 17.6503Z" fill="url(#paint2_linear_2_509)"/>
<path d="M12.495 34.4615C10.2067 34.4615 7.91849 33.0481 6.24887 31.4403C-3.01598 22.1451 0.248705 6.41131 12.2938 1.51319C24.2643 -3.36249 37.4274 5.4616 37.4274 18.4884C37.4274 27.7312 30.6744 34.4615 25.837 34.4615C21.9388 34.4615 19.6356 30.4383 20.4928 26.3852C22.0133 19.1464 26.4184 19.2586 28.6917 13.0144C24.1674 12.0946 21.6928 13.4332 19.1735 14.9812C16.6541 13.4332 14.1944 12.0946 9.65518 13.0144C11.9211 19.2511 16.3336 19.1614 17.8542 26.3852C18.6964 30.4458 16.3933 34.4615 12.495 34.4615ZM7.95575 29.7054C13.4789 34.7755 16.2218 30.4682 15.469 26.8937C14.0528 20.1485 9.29741 20.7467 6.9197 12.476L6.57683 11.2795C10.08 10.3373 14.0603 9.26045 19.166 12.1395C21.417 10.8757 23.5711 10.2775 25.9115 10.2775C28.252 10.2775 30.1601 10.8458 31.7552 11.2795L31.4123 12.476C29.0346 20.7467 24.2792 20.1485 22.863 26.8937C22.1102 30.4607 24.8382 34.7905 30.3763 29.7054C36.533 23.5136 36.5255 13.4482 30.3614 7.26381C24.1748 1.05703 14.1572 1.05703 7.97066 7.26381C1.80651 13.4482 1.79906 23.5061 7.95575 29.7054Z" fill="#0CA941"/>
<path d="M22.7448 27.9253C22.7523 27.5813 22.797 27.2298 22.8641 26.8858C23.3113 24.7471 24.0939 23.3487 25.0331 22.1672C23.9896 21.9802 23.1324 21.6886 22.5287 21.4343C21.679 22.6607 20.9485 24.1788 20.4864 26.3773C20.4342 26.6166 20.3969 26.8634 20.3671 27.1027C21.2765 27.6187 22.1336 27.8355 22.7448 27.9253Z" fill="url(#paint3_linear_2_509)"/>
<path d="M9.01508 17.1942C10.3344 19.2057 11.8176 20.3948 13.0624 21.8829C13.681 21.1052 14.2997 20.5219 14.7618 20.1255C13.4723 18.6599 12.0487 17.4708 10.8561 15.5415C10.0139 16.065 9.41012 16.6856 9.01508 17.1942Z" fill="url(#paint4_linear_2_509)"/>
<path d="M25.9051 12.7073C25.8156 11.78 25.5473 10.9126 25.3088 10.2844C23.2814 10.3742 21.3733 10.9275 19.3981 12.0044C19.8602 13.0214 20.0093 13.8664 20.0391 14.4497C21.7087 13.485 23.4677 12.7073 25.9051 12.7073Z" fill="url(#paint5_linear_2_509)"/>
<path d="M6.84619 25.6142C7.25614 24.0737 7.78535 21.606 9.9469 18.8989C11.0575 17.508 12.3768 16.3414 13.8899 15.4216L16.3421 16.8425L15.6862 17.2014C12.9805 18.6746 10.9606 21.0003 9.89473 23.8494L6.84619 25.6142Z" fill="#0CA941"/>
<path d="M31.4879 25.6146L30.3177 25.9287C26.5089 26.9532 22.5435 26.4372 19.1671 24.5826V21.741L19.8006 22.1298C22.3348 23.6927 25.3834 24.3358 28.4319 23.8423L31.4879 25.6146Z" fill="#0CA941"/>
<path d="M21.9845 16.8427L22.0069 16.0949C22.0889 13.014 21.0826 10.0901 19.1671 7.74195V4.20483L20.0242 5.06481C22.879 7.9289 24.3548 11.6679 24.4368 15.4219L21.9845 16.8427Z" fill="#0CA941"/>
</g>
<defs>
<linearGradient id="paint0_linear_2_509" x1="16.4787" y1="9.33406" x2="15.1742" y2="14.8276" gradientUnits="userSpaceOnUse">
<stop stop-color="#0CA941"/>
<stop offset="0.5" stop-color="#088733"/>
<stop offset="1" stop-color="#0CA941"/>
</linearGradient>
<linearGradient id="paint1_linear_2_509" x1="13.3447" y1="25.2885" x2="18.5992" y2="23.4134" gradientUnits="userSpaceOnUse">
<stop stop-color="#0CA941"/>
<stop offset="0.5" stop-color="#088733"/>
<stop offset="1" stop-color="#0CA941"/>
</linearGradient>
<linearGradient id="paint2_linear_2_509" x1="24.3445" y1="16.8814" x2="28.441" y2="20.7701" gradientUnits="userSpaceOnUse">
<stop stop-color="#0CA941"/>
<stop offset="0.5" stop-color="#088733"/>
<stop offset="1" stop-color="#0CA941"/>
</linearGradient>
<linearGradient id="paint3_linear_2_509" x1="23.5026" y1="21.9111" x2="21.6443" y2="27.3377" gradientUnits="userSpaceOnUse">
<stop stop-color="#0CA941"/>
<stop offset="0.5" stop-color="#067E2F"/>
<stop offset="1" stop-color="#0CA941"/>
</linearGradient>
<linearGradient id="paint4_linear_2_509" x1="9.85164" y1="16.4814" x2="13.9129" y2="20.7524" gradientUnits="userSpaceOnUse">
<stop stop-color="#0CA941"/>
<stop offset="0.5" stop-color="#088733"/>
<stop offset="1" stop-color="#0CA941"/>
</linearGradient>
<linearGradient id="paint5_linear_2_509" x1="19.9566" y1="12.9695" x2="25.4692" y2="11.3857" gradientUnits="userSpaceOnUse">
<stop stop-color="#0CA941"/>
<stop offset="0.5" stop-color="#088733"/>
<stop offset="1" stop-color="#0CA941"/>
</linearGradient>
<clipPath id="clip0_2_509">
<rect width="36.5228" height="34.3093" fill="white" transform="translate(0.90564 0.151855)"/>
</clipPath>
</defs>
</svg>
