<svg width="148.942566" height="248.565430" viewBox="0 0 148.943 248.565" fill="none" xmlns="http://www.w3.org/2000/svg" xmlns:xlink="http://www.w3.org/1999/xlink">
	<desc>
			Created with Pixso.
	</desc>
	<defs/>
	<path id="Vector" d="M60.0462 197.321C59.7687 197.321 59.6761 197.11 59.6761 196.9C64.9499 160.492 69.2984 123.558 73.5544 87.8872C76.145 66.0005 78.8281 43.2722 81.6962 20.7542C81.6962 20.5437 81.8813 20.4385 82.0663 20.4385C82.2513 20.4385 82.3439 20.6489 82.3439 20.8594C79.4757 43.3774 76.7926 66.0005 74.202 87.8872C69.946 123.558 65.5975 160.492 60.3238 196.9C60.3238 197.11 60.2313 197.321 60.0462 197.321Z" fill="#212121" fill-opacity="1.000000" fill-rule="nonzero"/>
	<path id="Vector" d="M104.549 208.684C104.364 208.684 104.179 208.579 104.179 208.368C100.941 176.38 97.4249 144.076 93.6315 112.509C92.1512 100.303 90.3933 88.2021 88.6354 76.5222C85.9523 58.6343 83.1766 40.1147 81.6963 20.9639C81.6963 20.7534 81.7888 20.543 81.9738 20.543C82.1589 20.543 82.3439 20.6482 82.3439 20.8586C83.8243 40.0095 86.5999 58.5291 89.2831 76.3118C91.041 87.9917 92.8914 100.093 94.2792 112.404C97.98 144.076 101.588 176.275 104.827 208.263C104.919 208.474 104.734 208.684 104.549 208.684Z" fill="#212121" fill-opacity="1.000000" fill-rule="nonzero"/>
	<path id="Vector" d="M102.884 240.569C98.6277 246.146 91.226 248.355 80.3085 248.355C69.391 248.355 59.4912 243.62 57.7333 240.569C47.6485 220.786 50.3316 206.476 57.7333 193.112L102.884 193.112C110.656 210.474 112.413 223.312 102.884 240.569Z" fill="#7C7671" fill-opacity="1.000000" fill-rule="nonzero"/>
	<g opacity="0.470000">
		<g opacity="0.470000">
			<path id="Vector" d="M97.7951 244.988C97.0549 244.988 95.297 246.461 94.4643 246.671C93.169 247.092 91.7812 247.513 90.4859 247.724C87.1551 248.355 83.7318 248.565 80.4011 248.565C69.4835 248.565 59.5837 243.83 57.8258 240.779C47.741 220.997 50.4241 206.686 57.8258 193.323C67.6331 193.323 77.4404 193.323 87.2477 193.323C92.4288 193.323 97.7951 193.533 102.976 193.323C103.809 194.901 104.087 197.321 103.254 198.9C102.606 200.162 101.496 201.004 100.478 201.846C93.2615 207.002 84.5645 208.37 76.0526 209.633C85.3972 210.685 94.8344 209.843 103.901 207.107C105.197 206.686 106.585 206.265 107.325 205.003C106.029 206.897 109.268 208.896 106.122 210.58C102.699 212.474 98.8128 213.315 95.112 214.052C86.0449 215.841 76.7002 216.051 67.5406 216.262C68.0957 216.262 69.9461 224.048 70.4087 225.206C71.704 228.363 73.3694 231.414 75.1273 234.15C80.5861 242.989 88.728 244.777 97.7951 244.988Z" fill="#7C7671" fill-opacity="1.000000" fill-rule="nonzero"/>
		</g>
	</g>
	<g opacity="0.690000">
		<g opacity="0.690000">
			<path id="Vector" d="M102.976 240.568C101.681 242.673 100.108 244.356 98.3503 243.935C101.218 241.515 103.069 237.727 102.791 233.518C102.514 229.52 100.201 225.626 96.9624 223.943C98.9054 227.521 100.848 231.098 102.791 234.676C97.1475 230.151 92.984 223.417 91.2261 215.841C91.9662 221.523 92.2438 227.31 91.1336 232.887C90.0233 238.464 87.3402 243.83 83.0842 246.882C89.0056 236.254 89.0981 222.259 84.7496 210.685C83.2692 206.791 81.3263 203.003 80.9562 198.794C76.9778 202.056 74.2947 206.896 72.4442 212.052C70.6863 217.208 69.7611 222.68 69.021 228.152C68.6509 223.732 68.2808 219.418 68.0032 214.999C65.5977 221.102 61.2491 226.258 55.8829 229.099C62.4519 221.628 64.3949 210.264 69.9462 201.846C65.3201 208.054 58.381 214.157 51.3494 216.156C51.4419 212.052 51.7195 208.264 52.9222 204.161C53.3848 202.688 56.3455 193.007 57.7333 193.007L102.884 193.007C106.77 201.635 110.008 211 109.268 220.891C109.083 223.206 108.713 225.416 108.158 227.626C107.88 228.678 106.307 231.414 106.4 232.361C105.937 228.047 105.567 223.838 105.104 219.523C104.827 217.208 104.642 214.788 103.624 212.684C102.236 209.843 99.6455 208.054 97.1475 206.37C98.8128 209.738 101.033 212.894 103.531 215.525C100.201 213.42 97.425 210.369 95.3895 206.686C96.7774 210.264 98.4427 213.736 100.293 216.998C101.866 219.839 103.624 222.47 104.642 225.521C106.4 230.782 105.659 236.149 102.976 240.568Z" fill="#7C7671" fill-opacity="1.000000" fill-rule="nonzero"/>
		</g>
	</g>
	<path id="Vector" d="M102.884 193.112C102.884 196.134 92.7766 198.583 80.3086 198.583C67.8407 198.583 57.7334 196.134 57.7334 193.112C57.7334 190.09 67.8407 187.64 80.3086 187.64C92.7766 187.64 102.884 190.09 102.884 193.112Z" fill="#474340" fill-opacity="1.000000" fill-rule="evenodd"/>
	<path id="Vector" d="M80.3087 199.11C69.1136 199.11 57.2709 197.005 57.2709 193.112C57.2709 189.219 69.1136 187.114 80.3087 187.114C91.5038 187.114 103.346 189.219 103.346 193.112C103.346 197.005 91.5038 199.11 80.3087 199.11ZM80.3087 188.167C67.2632 188.167 58.1961 190.797 58.1961 193.112C58.1961 195.427 67.2632 198.058 80.3087 198.058C93.3542 198.058 102.421 195.427 102.421 193.112C102.421 190.797 93.3542 188.167 80.3087 188.167Z" fill="#7C7671" fill-opacity="1.000000" fill-rule="nonzero"/>
	<path id="Vector" d="M85.2123 209.528C80.8638 209.528 76.6078 209.212 72.5369 209.001C68.5584 208.686 64.8576 208.16 61.4343 207.423C60.9717 207.318 60.4166 207.213 59.8614 207.107C57.0858 206.581 54.0326 206.055 52.0897 203.53C51.9971 203.319 51.9971 203.109 52.0897 203.004C52.2747 202.898 52.4597 202.898 52.5523 203.004C54.3102 205.319 57.2708 205.845 59.954 206.371C60.5091 206.476 61.0642 206.581 61.5268 206.687C64.9501 207.423 68.5584 207.949 72.5369 208.265C78.8283 208.791 85.5824 209.107 92.2439 208.581C95.2046 208.37 98.1653 208.054 101.033 207.423L101.774 207.213C104.364 206.581 107.325 205.95 109.453 204.056C109.638 203.951 109.823 203.951 109.915 204.161C110.008 204.372 110.008 204.582 109.823 204.687C107.602 206.687 104.549 207.423 101.866 207.949L101.126 208.16C98.1653 208.896 95.2046 209.107 92.3364 209.317C89.9309 209.422 87.6178 209.528 85.2123 209.528Z" fill="#EFE8CA" fill-opacity="1.000000" fill-rule="nonzero"/>
	<path id="Vector" d="M108.898 206.055C108.713 206.055 108.62 205.949 108.528 205.739C103.809 167.753 97.9801 129.136 92.2438 91.8862C88.8205 69.2629 85.2122 45.9033 81.9739 23.0696C80.6786 30.2249 79.2908 37.2749 77.9955 44.325C70.8714 82.2056 64.1173 117.982 59.1211 158.914C58.2884 165.543 57.0857 171.962 55.9754 178.17C54.4951 186.167 52.9222 194.48 52.182 203.319C52.182 203.529 51.997 203.74 51.8119 203.635C51.6269 203.635 51.4418 203.424 51.5344 203.214C52.2746 194.27 53.8474 185.957 55.3278 177.96C56.438 171.751 57.6408 165.333 58.4735 158.704C63.4696 117.771 70.2237 81.9951 77.3478 44.0093C78.8282 36.3279 80.3085 28.5413 81.6964 20.6494L82.0664 18.5449L82.344 20.6494C85.7673 44.325 89.3756 68.4211 92.9839 91.6758C98.7203 128.925 104.549 167.542 109.268 205.529C109.268 205.739 109.175 205.949 108.898 206.055Z" fill="#212121" fill-opacity="1.000000" fill-rule="nonzero"/>
	<path id="Vector" d="M82.2515 25.3845C82.0665 25.3845 81.8814 25.2793 81.8814 25.0688C81.6039 21.8069 81.4188 18.7554 81.5114 15.4934C81.6039 13.8098 81.6964 12.2314 82.4366 10.8635C82.7141 10.3374 83.0842 9.9165 83.4543 9.49561C83.7319 9.17993 83.9169 8.8645 84.1945 8.54883C85.5823 6.44434 85.3047 3.39282 83.5468 1.91968C81.6964 0.235962 79.3834 0.446411 77.903 2.34058C76.9778 3.49805 76.6077 5.28687 76.9778 6.76001C77.1628 7.49658 77.718 8.54883 79.1058 8.8645C79.2908 8.8645 79.3834 9.07471 79.3834 9.28516C79.3834 9.49561 79.1983 9.60083 79.0133 9.60083C77.718 9.28516 76.7003 8.33838 76.3302 6.97046C75.8676 5.28687 76.2376 3.18237 77.3479 1.81445C79.1058 -0.395386 81.8814 -0.605835 84.0094 1.28821C86.0449 3.07715 86.3224 6.65479 84.7496 9.07471C84.472 9.39038 84.287 9.81128 84.0094 10.127C83.6393 10.5479 83.3618 10.9688 83.0842 11.3896C82.4366 12.6523 82.3441 14.1255 82.2515 15.5986C82.159 18.7554 82.2515 21.8069 82.6216 25.0688C82.6216 25.1741 82.5291 25.3845 82.2515 25.3845Z" fill="#212121" fill-opacity="1.000000" fill-rule="nonzero"/>
	<path id="Vector" d="M80.8637 20.7551C80.4936 20.7551 80.3086 20.1238 80.5861 19.8081C80.8637 19.4924 81.3263 19.3872 81.6964 19.282C81.7889 19.282 82.0665 19.3872 81.8814 19.4924C82.5291 18.4402 83.8244 20.0186 83.2692 20.9656C83.1767 21.0708 83.0842 21.176 83.0842 21.2812C83.0842 21.3865 83.2692 21.4917 83.3618 21.5969C83.8244 21.9126 84.0094 22.6492 83.8244 23.1753C83.7318 23.7014 83.3618 24.2275 82.9917 24.7537C83.5468 24.7537 83.8244 25.385 83.7318 25.9111C83.6393 26.4373 83.0842 26.7529 82.6216 26.8582C82.159 26.9634 81.6039 26.8582 81.0487 26.7529C80.5861 26.6477 80.1235 26.5425 79.9385 26.1216C79.6609 25.4902 80.3086 24.8589 80.8637 24.438C80.4011 24.3328 80.031 23.9119 80.031 23.491C80.031 23.0701 80.4011 22.6492 80.8637 22.5439C80.5861 22.4387 79.6609 20.7551 80.8637 20.7551Z" fill="#BF7949" fill-opacity="1.000000" fill-rule="nonzero"/>
	<path id="Vector" d="M82.159 27.3838C81.7889 27.3838 81.4188 27.2786 81.0487 27.2786C80.4936 27.1733 79.9385 26.9629 79.6609 26.4368C79.3834 25.9106 79.5684 25.2793 80.216 24.6479C79.9385 24.4375 79.7534 24.0166 79.7534 23.5957C79.7534 23.1748 80.031 22.7539 80.4011 22.4382C80.1235 22.0173 79.9385 21.386 80.1235 20.8599C80.1235 20.7546 80.2161 20.6494 80.3086 20.6494C80.1235 20.3337 80.216 19.8076 80.4011 19.5972C80.6786 19.1763 81.2338 19.071 81.6964 18.9658C81.7889 18.9658 81.8814 18.9658 81.9739 18.9658C82.159 18.8606 82.344 18.7554 82.6216 18.7554C83.0842 18.8606 83.5468 19.2815 83.7318 19.8076C83.9169 20.3337 83.9169 20.7546 83.6393 21.1755C84.287 21.5964 84.5645 22.4382 84.3795 23.28C84.287 23.8062 84.0094 24.1218 83.8244 24.5427C83.9169 24.6479 84.0094 24.7532 84.1019 24.8584C84.287 25.1741 84.3795 25.595 84.287 26.0159C84.1019 26.6472 83.5468 27.0681 82.8991 27.2786C82.5291 27.3838 82.344 27.3838 82.159 27.3838ZM80.7712 21.1755C80.6786 21.1755 80.5861 21.1755 80.5861 21.1755C80.4936 21.386 80.8637 22.1226 81.0487 22.333L81.6039 22.9644L80.8637 23.0696C80.5861 23.0696 80.4011 23.3853 80.3086 23.5957C80.3086 23.8062 80.5861 24.1218 80.7712 24.1218L81.7889 24.2271L80.9562 24.8584C80.4936 25.1741 80.031 25.7002 80.216 26.0159C80.3086 26.2263 80.7712 26.3315 81.1413 26.4368C81.6964 26.542 82.159 26.6472 82.5291 26.542C82.9917 26.4368 83.2692 26.1211 83.3618 25.8054C83.3618 25.7002 83.3618 25.4897 83.2693 25.3845C83.1767 25.2793 83.0842 25.1741 82.8991 25.1741L82.159 25.1741L82.6216 24.5427C82.8992 24.1218 83.2692 23.5957 83.3618 23.1748C83.4543 22.7539 83.3618 22.2278 82.9917 22.0173C82.8066 21.9121 82.5291 21.7017 82.5291 21.386C82.5291 21.0703 82.6216 20.8599 82.7141 20.7546C82.8991 20.5442 82.8066 20.2285 82.8066 20.1233C82.7141 19.8076 82.4366 19.5972 82.2515 19.5972L82.159 19.5972L81.8814 19.8076L80.6786 20.6494L80.7712 21.1755ZM80.8637 20.439L81.3263 19.8076C81.1413 19.9128 80.9562 19.9128 80.8637 20.1233C80.7712 20.1233 80.6786 20.2285 80.8637 20.439Z" fill="#BF7949" fill-opacity="1.000000" fill-rule="nonzero"/>
	<path id="Vector" d="M51.0718 189.534C43.6701 191.638 37.3786 197.005 31.8273 203.003C24.6107 210.684 18.2267 219.312 12.953 228.783C15.266 222.154 18.4117 215.945 22.2976 210.368C27.8489 202.266 34.9731 195.321 43.3 191.112C51.9045 186.693 62.7295 184.588 71.334 190.376C67.9107 188.061 64.0248 186.693 60.0464 186.377C50.2391 185.325 40.8019 189.955 32.66 195.742C24.3331 201.635 17.209 209.737 11.8427 219.102C17.8566 208.58 25.1658 198.688 34.5105 191.954C40.6169 187.535 47.556 184.588 54.7726 183.852C58.4735 183.431 62.0818 183.747 65.6902 184.588C69.1135 185.43 70.7789 186.588 73.7395 188.587C67.4481 177.012 57.6408 164.07 44.9654 162.07C34.9731 160.492 24.8883 167.858 20.1697 178.064C23.778 168.068 30.9947 158.598 40.5244 157.651C45.613 157.125 50.6092 159.124 55.0502 161.86C63.9323 167.226 71.519 175.644 75.4049 186.167C74.2021 176.591 65.4126 167.332 58.6585 162.386C51.4419 157.23 43.0224 154.389 34.5105 153.863C43.485 152.6 52.7372 154.705 60.6015 159.65C68.4658 164.596 74.9423 172.382 78.8282 181.642C75.2199 170.173 69.6686 159.124 59.9539 153.126C49.869 146.918 37.3786 146.497 26.5536 150.812C15.7286 155.126 6.4765 163.964 0 174.697C1.66539 168.699 5.55128 163.859 9.89978 159.861C18.9669 151.443 30.2545 145.866 42.0047 145.235C53.7549 144.603 65.7827 149.444 73.9246 159.019C68.1882 148.602 57.4558 142.604 46.6308 141.552C35.8983 140.5 25.0733 143.972 15.266 149.023C22.6677 142.92 31.4573 138.921 40.5244 137.764C50.4241 136.501 60.9716 138.711 68.5583 145.971C73.7395 151.022 77.1628 158.177 79.2908 165.648C81.3263 173.119 82.159 180.906 82.9917 188.692C83.5468 175.223 80.1235 161.755 74.1096 150.075C68.1882 138.395 59.7688 128.504 50.4241 120.296C60.7865 122.611 69.206 131.871 74.0171 142.604C78.8282 153.337 80.7712 165.332 82.5291 177.223C80.4936 155.021 73.462 133.449 62.2669 115.035C67.9107 121.138 73.1844 127.978 76.7927 135.764C84.1019 151.443 84.472 169.962 84.7496 187.745C84.9346 176.276 86.3224 164.806 90.3008 154.284C94.2793 143.867 101.126 134.502 110.193 129.451C101.403 140.71 93.2615 153.337 90.5784 168.068C93.8167 156.073 101.311 145.55 110.933 139.342C120.555 133.134 132.306 131.24 143.038 134.186C131.843 134.502 120.555 137.027 110.656 143.025C100.756 149.023 92.3363 158.703 88.543 170.699C97.5175 156.283 112.876 147.444 128.42 147.55C119.445 150.601 110.285 153.758 102.236 159.335C94.1868 164.911 87.2477 173.224 84.657 183.536C90.856 170.278 103.531 161.229 116.669 160.703C106.77 164.175 97.8876 171.014 91.3186 180.064C95.0194 175.75 99.1829 171.751 104.179 169.541C109.175 167.332 115.004 167.226 119.538 170.278C127.772 175.855 129.622 189.744 138.227 194.69C133.138 190.902 129.067 185.746 124.349 181.432C119.723 177.012 114.171 173.329 108.157 173.119C101.866 172.908 95.7596 176.907 92.1513 182.8C90.7635 185.009 90.0233 187.64 89.5607 190.271C89.2831 191.638 89.1906 193.006 88.913 194.374C88.8205 195.111 88.8205 197.005 88.2654 197.531C87.9878 197.847 87.5252 197.952 87.0626 198.057C85.8598 198.268 84.657 198.373 83.4543 198.373C81.3263 198.373 79.1983 198.268 77.0703 197.952C76.2376 197.847 75.4049 197.741 74.6647 197.531C74.2946 197.426 73.8321 197.426 73.5545 197.11C72.9069 196.689 72.5367 195.216 71.8891 194.585C71.1489 193.743 70.3163 192.901 69.391 192.27C67.6331 190.902 65.6902 189.955 63.6547 189.429C59.4912 188.166 55.1427 188.376 51.0718 189.534Z" fill="#4F7F36" fill-opacity="1.000000" fill-rule="nonzero"/>
	<path id="Vector" d="M56.438 175.96C49.9615 173.645 42.9299 174.487 38.5814 181.327C36.8235 184.168 35.8058 187.535 35.1581 190.902C33.6778 198.478 33.8628 206.475 35.6207 213.946C32.3825 208.264 30.9021 201.319 31.5498 194.585C32.0124 190.06 33.4927 185.115 35.8983 181.537C37.8412 178.696 42.2822 173.961 45.428 173.224C41.2645 174.171 37.2861 176.697 34.4179 180.274C31.2722 184.273 30.0694 188.903 29.1442 194.059C28.3115 198.899 26.6461 206.686 28.7741 211.421C24.7032 202.477 25.7209 190.797 31.3647 183.01C27.5714 187.114 24.9808 192.691 24.1481 198.478C22.7602 192.901 24.9808 186.904 28.3115 182.484C34.9731 173.75 48.5737 169.226 58.0109 173.961C62.5444 176.276 66.5229 179.854 69.6686 184.168C71.2414 186.377 72.5367 188.692 73.647 191.218C74.2946 192.691 75.5899 197.321 77.1628 197.742C74.2946 196.795 73.2769 193.322 71.8891 190.692C70.3162 187.745 68.5583 184.904 66.4303 182.484C63.7472 179.748 60.1389 177.328 56.438 175.96Z" fill="#4F7F36" fill-opacity="1.000000" fill-rule="nonzero"/>
	<path id="Vector" d="M92.5213 172.488C90.9485 176.802 89.4681 181.222 88.1728 185.746C87.8952 186.799 85.3046 198.163 85.2121 198.163C83.9168 198.163 82.6215 198.163 81.2337 198.163C81.6038 192.481 80.1234 186.272 78.7356 180.801C76.4226 171.857 72.9068 163.228 67.9106 155.758C60.1388 143.972 49.2213 134.923 37.0085 129.978C44.5952 128.82 52.0895 133.029 57.8258 138.711C70.8713 151.338 78.6431 168.805 81.8813 187.746C81.0486 177.223 79.6608 165.754 77.0703 155.547C73.3694 140.605 65.4126 127.557 56.9006 115.457C63.3771 118.824 68.4658 124.927 71.9816 131.977C75.5899 138.922 77.7179 146.813 79.2907 154.6C81.6038 165.438 82.9916 176.592 83.5468 187.746C82.9916 173.435 82.4365 159.23 81.9739 144.919C81.6038 135.975 81.3262 127.031 81.6963 118.087C83.4542 134.607 84.2869 151.233 84.3794 167.858C84.3794 170.699 84.3794 173.646 85.1196 176.381C84.3794 160.493 88.1728 144.393 95.667 131.03C91.5961 149.128 87.5251 167.227 85.8598 185.852C87.0626 161.229 100.478 137.869 119.908 126.821C103.994 143.341 91.411 161.124 86.2299 185.325C88.5429 174.382 91.9662 163.018 99.0903 154.811C105.937 146.813 115.837 141.237 125.366 139.027C122.868 139.553 120 142.078 117.687 143.446C114.911 145.13 112.136 147.024 109.545 149.023C105.844 151.759 102.051 154.284 98.9978 158.073C95.9446 161.861 94.1867 167.542 92.4288 172.278C92.6138 172.383 92.6138 172.383 92.5213 172.488Z" fill="#78AD5C" fill-opacity="1.000000" fill-rule="nonzero"/>
	<path id="Vector" d="M63.9323 195.322C61.7118 199.11 60.0464 203.74 57.1783 206.371C53.8475 209.527 49.0364 210.474 44.8729 208.791C47.8336 209.843 50.5167 211.737 53.6624 211C60.0464 209.527 62.3595 204.056 65.5977 198.268C67.1706 195.427 69.206 192.902 71.5191 190.903C73.0919 189.535 74.7573 188.377 76.7003 188.167C78.6432 187.956 80.7712 189.009 81.5114 191.008C78.9208 190.061 76.1451 191.534 74.1096 193.428C65.4127 201.53 65.9678 217.209 63.0071 228.468C65.0426 220.681 67.1706 212.789 70.6864 205.634C73.1844 200.373 79.0133 189.219 85.5823 194.691C84.472 190.692 81.8815 185.957 77.8105 185.747C73.5545 185.431 69.021 188.903 66.0603 192.165C65.4127 193.007 64.6725 194.165 63.9323 195.322Z" fill="#78AD5C" fill-opacity="1.000000" fill-rule="nonzero"/>
	<path id="Vector" d="M78.5507 196.479C81.5114 192.691 84.3795 189.009 88.6355 187.641C93.3541 186.167 98.5353 186.378 103.069 188.377C107.325 190.271 111.581 193.533 115.004 197.111C121.573 203.845 126.199 212.684 129.622 221.944C131.473 226.889 133.416 232.677 137.857 234.676C135.914 234.992 134.063 233.519 132.583 231.94C126.292 225.416 122.313 216.683 117.502 208.791C112.691 200.899 106.307 193.323 97.9801 191.429C100.293 192.481 102.144 194.48 103.716 196.795C110.193 206.16 111.488 219.839 106.862 230.467C105.659 233.203 104.087 235.833 103.254 238.675C102.421 241.621 102.421 245.093 104.087 247.408C101.403 244.146 100.941 239.411 101.496 234.992C102.051 230.677 103.531 226.469 104.272 222.26C105.104 217.735 105.289 213.105 104.827 208.475C104.272 203.424 102.606 198.163 99.0904 195.112C96.2222 192.586 92.3363 191.85 88.728 192.376C85.2122 192.902 81.7889 194.585 78.5507 196.479Z" fill="#4F7F36" fill-opacity="1.000000" fill-rule="nonzero"/>
	<path id="Vector" d="M94.0018 207.002C95.7597 214.052 98.8129 222.576 105.012 226.153C108.528 228.153 112.784 227.837 116.762 227.206C113.154 227.732 110.563 229.415 106.677 228.363C103.254 227.416 99.9232 225.101 97.6101 222.155C93.1691 216.367 90.3935 208.16 88.1729 201.005C87.7104 199.531 86.9702 195.743 85.0272 195.954C84.4721 196.059 83.917 196.48 83.5469 197.006C83.4544 197.217 82.9918 198.374 82.8992 198.374C81.4189 198.269 79.9385 198.269 78.3657 198.164C78.2732 198.164 78.1806 198.164 78.0881 198.058C77.9031 197.848 77.9031 196.375 77.9031 196.059C77.9031 195.323 78.0881 194.586 78.2732 193.955C78.7357 192.692 79.4759 191.64 80.4012 190.903C82.4366 189.325 85.0272 189.43 87.0627 190.798C90.486 193.008 91.5962 197.848 92.614 202.162C93.2616 203.74 93.6317 205.319 94.0018 207.002Z" fill="#2D5E2D" fill-opacity="1.000000" fill-rule="nonzero"/>
	<path id="Vector" d="M87.0626 211.632C89.1906 218.051 91.8737 224.469 91.7811 231.309C91.6886 236.781 89.7457 242.042 87.5251 246.882C91.8737 244.146 94.1867 238.359 94.4643 232.782C94.7418 227.205 93.354 221.628 91.6886 216.367C89.2831 208.475 84.842 197.953 89.9307 190.166C90.0232 189.956 90.2083 189.745 90.2083 189.535C90.2083 189.43 90.1158 189.324 90.1158 189.219C89.4681 187.851 87.7102 187.746 86.5999 188.483C85.4897 189.324 84.842 190.798 84.5645 192.271C82.9916 198.479 85.1196 205.845 87.0626 211.632Z" fill="#437039" fill-opacity="1.000000" fill-rule="nonzero"/>
	<path id="Vector" d="M95.3895 177.96C99.1828 175.645 103.439 174.698 107.417 177.118C111.211 179.433 113.524 184.063 116.947 187.009C120.185 189.85 124.441 191.323 128.512 190.903C124.349 192.165 119.723 191.534 116.022 189.114C112.228 186.694 109.268 182.906 105.567 180.38C102.051 177.96 98.0726 179.644 94.7418 181.958C90.6709 184.694 87.8952 189.324 83.3617 191.218C82.8065 191.429 81.9739 191.429 81.8813 190.797C85.3972 189.009 87.6177 185.115 90.3933 182.064C91.9662 180.591 93.6316 179.117 95.3895 177.96Z" fill="#437039" fill-opacity="1.000000" fill-rule="nonzero"/>
	<path id="Vector" d="M51.812 188.167C51.0718 188.798 50.4242 189.429 49.684 190.061C44.5953 195.111 44.1327 201.004 42.7449 207.949C44.5953 199.11 50.4242 191.534 57.8259 188.272C61.8043 186.483 66.2453 186.062 70.4088 186.799C75.8676 187.746 79.0133 191.639 82.9917 195.532C83.0842 195.637 83.1767 195.743 83.2693 195.743C83.7319 195.953 84.287 195.532 84.6571 195.111C87.3402 192.375 91.041 191.639 94.1868 190.061C96.1297 189.114 102.976 185.325 104.919 186.378C99.553 183.431 92.5214 185.22 88.728 190.481C89.8383 186.904 91.9663 183.852 94.0943 180.906C97.24 176.487 100.478 172.067 103.716 167.753C95.7596 172.699 89.4682 181.011 86.3224 190.692C90.7635 176.382 94.9269 161.966 98.9979 147.445C91.5962 159.967 87.0626 174.698 85.9524 189.85C87.6178 181.432 89.1906 172.909 88.8206 164.281C88.543 158.599 87.3402 152.917 86.9701 147.234C86.415 140.079 87.0626 132.819 88.728 125.979C84.8421 134.081 84.9346 143.762 85.5823 152.917C86.0449 159.546 86.6925 166.28 86.1374 173.014C85.8599 176.066 85.0272 179.012 84.8421 182.063C84.6571 185.325 84.8421 188.798 85.1197 192.06C84.8421 186.272 83.4543 180.59 80.9562 175.54C78.9207 171.436 74.6648 168.279 71.0564 166.07C62.1744 160.493 51.4419 159.546 41.6346 162.387C50.7943 161.019 60.4165 161.65 68.5583 166.28C76.7928 171.015 83.2693 180.485 83.2693 190.902C80.6786 184.905 77.903 178.486 72.9069 175.013C68.9285 172.278 64.0248 171.646 59.4913 173.014C55.0502 174.277 51.0718 177.434 48.0186 181.432C53.8475 177.013 61.3417 175.014 68.0957 177.013C74.8498 179.012 80.8637 185.115 82.6216 192.796C79.1058 186.799 73.0919 182.905 66.8004 182.379C61.0641 182.169 56.1605 184.484 51.812 188.167Z" fill="#79A836" fill-opacity="1.000000" fill-rule="nonzero"/>
	<path id="Vector" d="M73.2768 181.642C69.576 182.695 66.4302 185.536 63.7471 188.692C61.064 191.849 58.5659 195.216 55.6052 197.952C53.8473 199.53 51.8119 200.793 50.239 202.582C56.9006 199.741 62.0817 193.638 68.0956 189.534C71.0563 187.535 74.3871 185.851 77.9029 186.062C81.3262 186.167 84.7495 188.377 85.9523 192.165C84.7495 184.799 80.2159 179.748 73.2768 181.642Z" fill="#78AD5C" fill-opacity="1.000000" fill-rule="nonzero"/>
	<path id="Vector" d="M96.4072 179.223C101.403 175.329 107.787 177.013 112.876 179.959C116.854 182.169 120.555 185.115 124.904 186.273C129.345 187.535 134.248 186.799 138.319 184.273C135.821 185.431 133.231 186.588 130.455 186.588C125.366 186.588 121.11 182.485 117.132 178.802C111.673 173.751 105.752 169.963 99.1828 174.382C93.7241 178.065 89.0055 185.01 88.1728 192.375C89.098 184.063 90.3933 175.014 96.3146 169.332C100.293 165.438 105.567 163.334 110.748 163.334C113.431 163.334 116.114 163.965 118.705 163.755C121.665 163.544 124.441 162.387 127.217 161.124C129.437 160.177 131.658 159.23 133.138 157.125C129.992 159.861 125.829 160.703 121.851 160.808C117.872 160.914 113.894 160.282 109.915 160.598C105.289 160.914 100.756 162.492 96.7773 165.017C93.0764 167.332 89.7456 170.699 87.9877 175.014C85.4897 181.327 86.6924 190.166 87.155 197.005C86.97 194.69 89.098 190.166 89.8381 187.746C91.0409 184.379 93.8166 181.327 96.4072 179.223Z" fill="#78AD5C" fill-opacity="1.000000" fill-rule="nonzero"/>
	<path id="Vector" d="M47.8334 151.654C41.8195 151.97 36.1757 154.916 30.5319 157.126C24.8881 159.441 18.5042 161.019 12.8604 158.704C15.1734 159.335 17.6715 158.809 19.9845 158.178C29.1441 155.442 37.6561 149.444 47.1858 148.813C51.9969 148.497 56.808 149.655 61.3416 151.549C71.4264 155.758 78.458 164.386 81.0486 176.276C82.4364 182.379 82.714 188.693 82.9915 194.901C82.714 188.798 81.0486 182.379 79.4757 176.592C77.9954 171.331 76.6075 169.121 73.1843 165.544C66.0601 158.073 58.1033 151.128 47.8334 151.654Z" fill="#79A836" fill-opacity="1.000000" fill-rule="nonzero"/>
	<path id="Vector" d="M67.1706 174.488C62.1745 172.699 56.7157 174.172 51.442 173.541C45.9832 172.909 40.617 169.963 36.8236 165.438C42.6525 168.806 49.0364 170.805 55.5129 171.331C59.2138 171.647 63.0072 171.436 66.6155 172.489C74.2948 174.698 82.5292 184.589 81.2339 194.165C79.661 191.745 79.1984 187.957 77.9031 185.221C75.7751 180.38 71.7967 176.171 67.1706 174.488Z" fill="#437039" fill-opacity="1.000000" fill-rule="nonzero"/>
	<path id="Vector" d="M133.138 149.865C124.997 146.813 116.207 148.392 108.528 152.496C103.902 155.021 99.5531 158.388 95.5747 162.071C93.6318 163.86 92.0589 165.754 90.5786 167.963C89.2832 169.857 86.9702 172.593 86.4151 175.013C88.5431 166.28 87.9879 156.599 88.7281 147.655C89.3758 139.553 90.6711 131.24 93.4467 123.559C94.9271 119.56 96.87 113.668 99.4606 110.301C94.0944 117.035 90.2085 125.242 88.0805 133.976C85.86 143.131 86.5076 152.496 86.4151 161.966C86.3226 167.122 86.23 173.225 84.0095 177.854C85.1198 164.386 82.9918 149.655 80.0311 136.607C78.8283 131.24 77.348 125.979 74.9424 121.139C72.5369 116.298 69.2061 111.984 64.9501 109.354C68.4659 113.878 71.7967 118.719 74.1097 124.19C77.348 131.977 79.1059 141.131 80.4937 149.549C81.9741 158.704 82.8993 168.069 83.0843 177.328C82.0666 171.331 80.4012 165.333 77.9031 159.966C71.2416 145.866 57.826 137.448 49.9617 124.085C51.9971 127.663 54.0326 131.345 56.4382 134.607C61.3418 141.026 67.7258 145.866 72.3518 152.706C75.405 157.23 77.6255 162.492 79.476 167.858C81.5114 173.751 82.3441 179.538 82.8068 185.852C84.1946 180.485 87.1553 175.855 90.3935 171.541C92.5215 168.7 95.0196 166.385 97.4251 163.86C99.9232 161.229 102.606 158.914 105.567 156.915C111.581 153.022 118.427 150.917 125.274 151.128C130.363 151.338 135.451 152.811 139.985 155.442C144.426 157.967 146.646 162.913 147.664 168.279C148.404 172.383 148.404 176.592 148.127 180.696C148.682 179.328 148.775 177.854 148.867 176.276C148.96 172.909 149.052 169.437 148.589 166.069C146.832 157.336 140.263 152.601 133.138 149.865Z" fill="#2D5E2D" fill-opacity="1.000000" fill-rule="nonzero"/>
	<path id="Vector" d="M81.4189 186.588C80.1236 184.8 78.0881 185.747 76.7003 186.904C74.8499 188.588 73.3696 190.903 72.5369 193.428C71.7042 195.953 71.5191 198.689 71.4266 201.32C71.3341 205.318 71.3341 209.317 71.5191 213.21C70.0388 207.002 69.8537 199.636 71.149 193.323C71.7967 189.956 73.1845 186.694 75.405 184.379C76.7928 183.011 78.5508 181.958 80.3087 182.274C82.8993 182.8 84.3796 185.747 85.3048 188.272C85.5824 184.694 87.0627 181.222 89.3758 178.802C91.4112 176.697 94.6495 176.487 96.7775 178.591C98.3503 180.17 98.9055 182.59 99.5531 184.8C100.756 188.903 102.421 193.007 105.104 196.269C103.532 195.532 101.866 194.691 100.663 193.218C98.3503 190.166 98.9055 185.115 96.4999 182.064C95.1121 180.38 92.799 179.644 90.8561 180.275C87.8954 181.327 86.9702 184.694 86.1375 187.746C85.6749 189.429 85.7674 191.218 85.3048 193.007C85.2123 193.323 83.8245 198.268 84.0095 198.268C83.3619 198.163 82.8067 198.058 82.1591 198.058C82.9918 195.006 82.7142 191.744 82.0666 188.588C81.8815 187.851 81.789 187.22 81.4189 186.588Z" fill="#79A836" fill-opacity="1.000000" fill-rule="nonzero"/>
	<path id="Vector" d="M93.169 189.219C94.4643 192.375 95.112 195.848 96.3147 199.11C97.5175 202.372 99.553 205.423 102.514 206.475C99.368 205.949 96.8699 203.213 95.2045 200.162C93.5391 197.11 92.5214 193.638 91.3186 190.376C90.6709 188.692 89.7457 186.693 88.0804 186.483C87.8028 186.483 87.5252 186.483 87.2477 186.588C87.0626 186.693 86.9701 187.009 86.785 187.219C85.8598 189.219 85.3047 191.533 85.2122 193.848C84.3795 190.902 84.1019 181.642 88.913 183.221C90.9485 183.957 92.3363 187.219 93.169 189.219Z" fill="#78AD5C" fill-opacity="1.000000" fill-rule="nonzero"/>
	<g opacity="0.740000">
		<g opacity="0.740000">
			<g opacity="0.740000">
				<path id="Vector" d="M82.0664 127.873C82.6216 131.766 82.8066 135.66 82.9916 139.553C83.1767 143.446 83.2692 147.34 82.9916 151.233C82.4365 147.34 82.2515 143.446 82.0664 139.553C81.9739 135.765 81.8814 131.872 82.0664 127.873Z" fill="#212121" fill-opacity="1.000000" fill-rule="nonzero"/>
			</g>
		</g>
		<g opacity="0.740000">
			<g opacity="0.740000">
				<path id="Vector" d="M85.7673 144.078C85.3972 143.236 85.3972 142.395 85.3972 141.553C85.4897 140.711 85.5822 139.869 85.9523 139.027C86.3224 139.869 86.3224 140.711 86.3224 141.553C86.2299 142.5 86.1374 143.342 85.7673 144.078Z" fill="#212121" fill-opacity="1.000000" fill-rule="nonzero"/>
			</g>
		</g>
		<g opacity="0.740000">
			<g opacity="0.740000">
				<path id="Vector" d="M71.4266 128.82C73.9247 131.977 75.8676 135.765 77.2555 139.763C78.6433 143.762 79.476 148.076 79.476 152.285C78.7358 148.076 77.7181 144.077 76.4228 140.079C75.0349 136.291 73.3696 132.503 71.4266 128.82Z" fill="#212121" fill-opacity="1.000000" fill-rule="nonzero"/>
			</g>
		</g>
		<g opacity="0.740000">
			<g opacity="0.740000">
				<path id="Vector" d="M74.9425 159.44C75.4976 159.756 75.8677 160.282 76.1453 160.808C76.4229 161.334 76.6079 161.965 76.6079 162.702C76.0528 162.386 75.6827 161.86 75.4051 161.334C75.1275 160.808 74.9425 160.177 74.9425 159.44Z" fill="#212121" fill-opacity="1.000000" fill-rule="nonzero"/>
			</g>
		</g>
		<g opacity="0.740000">
			<g opacity="0.740000">
				<path id="Vector" d="M83.3618 190.796C83.8244 191.533 84.0094 192.375 84.0094 193.217C84.0094 194.058 83.7319 194.9 83.2693 195.637C83.0842 194.795 83.0842 193.953 83.0842 193.217C83.1768 192.375 83.1767 191.638 83.3618 190.796Z" fill="#212121" fill-opacity="1.000000" fill-rule="nonzero"/>
			</g>
		</g>
		<g opacity="0.740000">
			<g opacity="0.740000">
				<path id="Vector" d="M83.3619 179.538C86.8777 174.171 90.5786 169.015 94.8346 164.385C99.0906 159.756 103.902 155.757 109.36 152.916C114.727 150.18 120.741 148.602 126.662 149.128C128.142 149.233 129.623 149.549 131.01 149.865C132.491 150.285 133.879 150.706 135.266 151.338C136.654 151.969 137.95 152.706 139.245 153.653C140.448 154.6 141.65 155.547 142.761 156.704C141.65 155.652 140.448 154.705 139.152 153.863C137.857 153.021 136.562 152.39 135.174 151.759C133.786 151.232 132.398 150.706 131.01 150.391C129.623 150.075 128.142 149.865 126.662 149.759C120.833 149.338 115.097 150.917 109.823 153.653C104.549 156.388 99.7382 160.282 95.4822 164.806C91.0412 169.436 87.1553 174.487 83.3619 179.538Z" fill="#212121" fill-opacity="1.000000" fill-rule="nonzero"/>
			</g>
		</g>
		<g opacity="0.740000">
			<g opacity="0.740000">
				<path id="Vector" d="M85.9525 173.119C86.5076 168.594 86.6927 164.07 86.8777 159.44C86.9702 154.916 87.0628 150.286 87.3403 145.656C87.7104 141.131 88.2655 136.501 89.3758 132.082C89.9309 129.872 90.6711 127.662 91.5038 125.663C92.429 123.559 93.4467 121.559 94.6495 119.771C92.5215 123.664 91.0412 127.873 90.0235 132.292C89.0057 136.712 88.5431 141.236 88.2655 145.761C87.8954 150.286 87.8029 154.916 87.5254 159.44C87.2478 164.07 86.8777 168.594 85.9525 173.119Z" fill="#212121" fill-opacity="1.000000" fill-rule="nonzero"/>
			</g>
		</g>
		<g opacity="0.740000">
			<g opacity="0.740000">
				<path id="Vector" d="M90.5785 160.387C90.9486 158.072 91.5962 155.862 92.3364 153.758C93.0766 151.548 94.0943 149.549 95.1121 147.549C96.2223 145.55 97.4251 143.656 98.8129 141.972C99.4605 141.131 100.201 140.289 100.941 139.447C101.681 138.71 102.421 137.869 103.254 137.237C102.884 137.658 102.606 138.079 102.236 138.5L101.218 139.868C100.571 140.71 99.9232 141.657 99.2755 142.499C98.0727 144.287 96.8699 146.181 95.8522 148.181C94.7419 150.075 93.8167 152.179 92.8915 154.178C92.0588 156.073 91.3187 158.177 90.5785 160.387Z" fill="#212121" fill-opacity="1.000000" fill-rule="nonzero"/>
			</g>
		</g>
		<g opacity="0.740000">
			<g opacity="0.740000">
				<path id="Vector" d="M99.7382 149.76C101.126 146.077 103.161 142.815 105.474 139.868C107.88 136.922 110.656 134.397 113.709 132.608C111.026 135.133 108.528 137.764 106.122 140.605C103.809 143.446 101.681 146.498 99.7382 149.76Z" fill="#212121" fill-opacity="1.000000" fill-rule="nonzero"/>
			</g>
		</g>
		<g opacity="0.740000">
			<g opacity="0.740000">
				<path id="Vector" d="M107.14 143.657C109.175 141.763 111.396 140.184 113.709 138.922C116.022 137.554 118.52 136.501 121.018 135.66C123.516 134.818 126.107 134.292 128.697 133.976L130.64 133.871L132.583 133.766L134.526 133.871C135.174 133.976 135.822 133.976 136.469 134.081C135.822 134.081 135.174 134.187 134.526 134.187L132.583 134.292L130.64 134.502L128.697 134.818C126.199 135.239 123.609 135.87 121.203 136.712C118.705 137.554 116.299 138.501 113.986 139.658C111.673 140.816 109.36 142.184 107.14 143.657Z" fill="#212121" fill-opacity="1.000000" fill-rule="nonzero"/>
			</g>
		</g>
		<g opacity="0.740000">
			<g opacity="0.740000">
				<path id="Vector" d="M60.8792 119.35C62.452 120.508 63.9324 121.981 65.2276 123.454C66.5229 125.032 67.7257 126.716 68.836 128.505C70.964 132.082 72.6294 135.976 74.1097 139.974C75.4975 143.973 76.7928 147.971 77.9031 152.075C78.4582 154.179 78.9208 156.179 79.3834 158.283C79.846 160.388 80.3086 162.492 80.5862 164.597C80.0311 162.492 79.476 160.493 78.9208 158.494C78.3657 156.494 77.8105 154.39 77.1629 152.391C75.9601 148.392 74.6648 144.288 73.1845 140.395C71.7967 136.396 70.1313 132.608 68.1883 129.031C66.2454 125.453 63.8398 122.086 60.8792 119.35Z" fill="#212121" fill-opacity="1.000000" fill-rule="nonzero"/>
			</g>
		</g>
		<g opacity="0.740000">
			<g opacity="0.740000">
				<path id="Vector" d="M69.7612 115.667C71.3341 117.245 72.7219 119.139 73.8322 121.244C74.9424 123.348 75.7751 125.558 76.5153 127.873C77.2555 130.083 77.9031 132.503 78.4583 134.818C79.0134 137.133 79.5685 139.448 80.0311 141.868C80.9563 146.603 81.6965 151.338 82.1591 156.178C82.3441 158.599 82.5292 161.019 82.7142 163.439C82.8068 165.859 82.8993 168.279 82.8068 170.699C82.4367 165.859 82.0666 161.124 81.4189 156.389C80.7713 151.654 80.0311 146.919 79.1059 142.289C78.1807 137.659 77.0704 132.924 75.7751 128.399C75.1275 126.084 74.2948 123.875 73.3696 121.77C72.4444 119.35 71.2416 117.351 69.7612 115.667Z" fill="#212121" fill-opacity="1.000000" fill-rule="nonzero"/>
			</g>
		</g>
		<g opacity="0.740000">
			<g opacity="0.740000">
				<path id="Vector" d="M56.7157 124.716C59.4913 126.084 61.9894 128.083 64.2099 130.504C66.3379 132.924 68.1883 135.765 69.4836 138.816C67.6332 136.081 65.6903 133.555 63.5623 131.24C61.4343 128.82 59.1212 126.716 56.7157 124.716Z" fill="#212121" fill-opacity="1.000000" fill-rule="nonzero"/>
			</g>
		</g>
		<g opacity="0.740000">
			<g opacity="0.740000">
				<path id="Vector" d="M45.058 131.872C47.5561 132.819 49.9616 134.081 52.2747 135.66C54.5877 137.133 56.7157 139.027 58.7511 141.026C60.7866 143.025 62.637 145.235 64.2099 147.655L65.4127 149.444L66.5229 151.338L67.5407 153.337C67.8182 153.969 68.1883 154.705 68.4659 155.337C68.0958 154.705 67.7257 154.074 67.3556 153.443L66.1529 151.654L64.9501 149.865L63.6548 148.181C61.8969 145.972 60.0464 143.762 58.1035 141.868C56.1606 139.869 54.0326 138.08 51.812 136.396C49.7766 134.607 47.4635 133.134 45.058 131.872Z" fill="#212121" fill-opacity="1.000000" fill-rule="nonzero"/>
			</g>
		</g>
		<g opacity="0.740000">
			<g opacity="0.740000">
				<path id="Vector" d="M25.8135 157.336C28.7742 157.021 31.5498 155.653 34.2329 154.285C36.916 152.917 39.6917 151.549 42.6524 150.917C45.6131 150.286 48.5737 150.181 51.627 150.076C53.1073 150.076 54.6801 150.076 56.1605 150.391C57.6408 150.707 59.1212 151.338 60.509 151.97C63.1921 153.443 65.7827 155.126 68.2808 157.126C70.7789 159.125 73.0919 161.335 75.0349 163.86C76.9778 166.491 78.5507 169.437 79.5684 172.699C80.5862 175.961 81.1413 179.223 81.6039 182.59C80.9562 179.328 80.2161 175.961 79.1058 172.909C77.9955 169.753 76.5152 166.912 74.4797 164.386C70.5013 159.441 65.4126 155.758 60.1389 152.917C58.8436 152.18 57.4558 151.654 56.068 151.338C54.6801 151.023 53.1998 150.917 51.7195 150.917C48.7588 151.023 45.7981 151.128 42.9299 151.654C40.0618 152.18 37.2861 153.443 34.5105 154.706C31.6423 156.073 28.8667 157.231 25.8135 157.336Z" fill="#212121" fill-opacity="1.000000" fill-rule="nonzero"/>
			</g>
		</g>
		<g opacity="0.740000">
			<g opacity="0.740000">
				<path id="Vector" d="M73.647 189.323C73.9245 188.166 74.3871 187.114 75.0348 186.167C75.6824 185.22 76.5151 184.273 77.4404 183.747C78.4581 183.22 79.6609 183.01 80.6786 183.431C81.6964 183.852 82.6216 184.799 82.8991 185.956C82.344 185.009 81.4188 184.483 80.4936 184.273C79.5684 184.062 78.6431 184.273 77.8104 184.799C76.9778 185.22 76.2376 185.956 75.4974 186.798C74.8498 187.535 74.2946 188.482 73.647 189.323Z" fill="#212121" fill-opacity="1.000000" fill-rule="nonzero"/>
			</g>
		</g>
		<g opacity="0.740000">
			<g opacity="0.740000">
				<path id="Vector" d="M85.9525 186.377C86.3226 185.43 86.9702 184.589 87.8955 184.273C88.3581 184.062 88.9132 184.168 89.3758 184.378C89.8384 184.589 90.2085 185.01 90.4861 185.43C91.1337 186.272 91.5038 187.114 91.9664 187.956C92.429 188.798 92.7991 189.745 93.1692 190.586C94.6495 194.269 95.0196 198.268 96.7775 201.74C95.5747 200.267 94.8346 198.373 94.1869 196.479C93.5393 194.585 93.0767 192.691 92.3365 190.902C91.9664 190.06 91.5963 189.113 91.1337 188.271C90.7636 187.43 90.301 186.483 89.9309 185.746C89.4683 185.01 88.8207 184.483 87.988 184.589C87.1553 184.904 86.4151 185.641 85.9525 186.377Z" fill="#212121" fill-opacity="1.000000" fill-rule="nonzero"/>
			</g>
		</g>
		<g opacity="0.740000">
			<g opacity="0.740000">
				<path id="Vector" d="M90.0233 179.433C90.671 178.802 91.5037 178.381 92.3363 178.065C93.169 177.854 94.0942 177.749 95.0195 178.17C95.9447 178.486 96.6848 179.117 97.24 180.064C97.7026 180.906 98.0727 181.748 98.5353 182.695C98.9054 183.537 99.2755 184.484 99.553 185.431C99.8306 186.378 100.016 187.325 100.201 188.272C100.663 190.166 101.126 191.955 102.236 193.428C101.588 192.796 101.033 192.06 100.571 191.218C100.108 190.376 99.8306 189.429 99.553 188.482C98.9979 186.588 98.5353 184.799 97.7026 183.116C97.3325 182.274 96.9624 181.327 96.4998 180.59C96.1297 179.854 95.4821 179.328 94.7419 178.907C93.2616 178.275 91.5037 178.591 90.0233 179.433Z" fill="#212121" fill-opacity="1.000000" fill-rule="nonzero"/>
			</g>
		</g>
		<g opacity="0.740000">
			<g opacity="0.740000">
				<path id="Vector" d="M94.557 188.272C94.742 187.641 95.2047 187.22 95.6673 187.009C96.1299 186.799 96.685 186.588 97.2401 186.904C96.87 187.43 96.5 187.746 96.0374 187.956C95.5747 188.062 95.2047 188.272 94.557 188.272Z" fill="#212121" fill-opacity="1.000000" fill-rule="nonzero"/>
			</g>
		</g>
		<g opacity="0.740000">
			<g opacity="0.740000">
				<path id="Vector" d="M97.7952 176.592C98.8129 175.855 99.9232 175.329 101.033 174.908C102.144 174.487 103.346 174.171 104.549 174.066C105.752 173.961 107.047 174.066 108.158 174.487C109.36 174.908 110.471 175.539 111.488 176.276C113.524 177.749 115.374 179.327 117.317 180.906C118.242 181.748 119.26 182.484 120.185 183.221L123.053 185.536C121.943 184.904 120.926 184.273 119.908 183.642C118.89 182.905 117.872 182.274 116.855 181.537C114.819 180.169 112.876 178.486 110.933 177.118C108.99 175.645 106.77 174.803 104.457 174.908C102.329 174.908 100.016 175.645 97.7952 176.592Z" fill="#212121" fill-opacity="1.000000" fill-rule="nonzero"/>
			</g>
		</g>
		<g opacity="0.740000">
			<g opacity="0.740000">
				<path id="Vector" d="M106.862 170.7C107.88 170.384 108.99 170.174 110.1 170.068C111.211 170.068 112.321 170.068 113.431 170.279C115.652 170.7 117.78 171.752 119.63 173.225C121.481 174.698 122.961 176.592 124.441 178.381L126.662 181.117C127.402 182.064 128.142 183.011 128.79 183.958C127.957 183.116 127.124 182.274 126.384 181.433L123.979 178.907C122.406 177.224 120.925 175.33 119.168 173.962C117.41 172.594 115.467 171.542 113.339 171.015C112.321 170.7 111.211 170.594 110.193 170.489C108.99 170.594 107.972 170.594 106.862 170.7Z" fill="#212121" fill-opacity="1.000000" fill-rule="nonzero"/>
			</g>
		</g>
		<g opacity="0.740000">
			<g opacity="0.740000">
				<path id="Vector" d="M105.012 178.907C106.677 178.697 108.343 179.538 109.638 180.591C111.026 181.748 112.043 183.116 113.246 184.379C115.559 186.904 118.242 188.903 121.203 190.376C117.965 189.64 115.004 187.746 112.599 185.115C111.396 183.747 110.378 182.379 109.175 181.222C108.065 180.17 106.677 179.117 105.012 178.907Z" fill="#212121" fill-opacity="1.000000" fill-rule="nonzero"/>
			</g>
		</g>
		<g opacity="0.740000">
			<g opacity="0.740000">
				<path id="Vector" d="M102.699 190.482C106.215 191.955 109.73 193.639 112.784 196.375C115.837 199.11 118.057 202.688 120.093 206.266C122.036 209.948 123.979 213.526 125.829 217.314L128.605 222.891C129.53 224.785 130.455 226.574 131.288 228.468C130.27 226.679 129.252 224.89 128.142 223.102L125.089 217.735L119.168 206.897C117.225 203.319 115.004 199.847 112.228 197.111C110.841 195.743 109.268 194.586 107.602 193.533C106.122 192.376 104.364 191.429 102.699 190.482Z" fill="#212121" fill-opacity="1.000000" fill-rule="nonzero"/>
			</g>
		</g>
		<g opacity="0.740000">
			<g opacity="0.740000">
				<path id="Vector" d="M103.439 198.899C104.734 200.793 105.659 203.003 106.4 205.318C107.14 207.633 107.51 210.053 107.695 212.473C107.88 214.893 107.695 217.418 107.325 219.733L106.955 221.522L106.492 223.311L105.937 224.995C105.752 225.521 105.474 226.047 105.197 226.678C105.382 226.047 105.474 225.521 105.659 224.995L106.03 223.206L106.4 221.417L106.677 219.628C106.955 217.313 107.047 214.893 106.862 212.578C106.77 210.263 106.307 207.843 105.845 205.528C105.104 203.318 104.364 201.003 103.439 198.899Z" fill="#212121" fill-opacity="1.000000" fill-rule="nonzero"/>
			</g>
		</g>
		<g opacity="0.740000">
			<g opacity="0.740000">
				<path id="Vector" d="M104.087 230.256C104.179 231.729 103.994 232.992 103.716 234.36C103.439 235.728 103.069 236.991 102.421 238.253C102.329 236.78 102.514 235.518 102.791 234.15C103.069 232.782 103.439 231.414 104.087 230.256Z" fill="#212121" fill-opacity="1.000000" fill-rule="nonzero"/>
			</g>
		</g>
		<g opacity="0.740000">
			<g opacity="0.740000">
				<path id="Vector" d="M100.108 223.837C99.7381 223.417 99.368 222.996 98.998 222.469L97.9802 220.996L97.055 219.523L96.1298 217.945C94.927 215.84 94.0018 213.631 93.1691 211.316C92.3364 209.001 91.5963 206.686 91.0411 204.266C90.7635 203.108 90.486 201.845 90.2084 200.688C89.9309 199.531 89.7458 198.268 89.4683 197.11C89.8383 198.268 90.2084 199.425 90.5785 200.583L91.6888 204.055C92.429 206.37 93.1691 208.685 94.0018 210.895C94.8345 213.104 95.6672 215.314 96.6849 217.524C97.7027 219.734 98.8129 221.838 100.108 223.837Z" fill="#212121" fill-opacity="1.000000" fill-rule="nonzero"/>
			</g>
		</g>
		<g opacity="0.740000">
			<g opacity="0.740000">
				<path id="Vector" d="M86.1375 196.584C85.9525 198.584 86.045 200.583 86.3226 202.582C86.6002 204.582 87.0628 206.476 87.6179 208.37C88.7281 212.158 90.116 215.841 91.4113 219.629C92.614 223.417 93.6318 227.415 93.6318 231.519C93.6318 233.518 93.3542 235.623 92.8916 237.517C92.3365 239.411 91.5038 241.305 90.301 242.778C90.8561 241.936 91.2262 241.094 91.5963 240.147C91.9664 239.2 92.244 238.253 92.429 237.306C92.8916 235.412 92.9841 233.413 92.8916 231.414C92.7991 227.415 91.7814 223.627 90.4861 219.839C89.2833 216.051 87.8954 212.368 86.8777 208.475C86.4151 206.476 86.045 204.582 85.86 202.477C85.7675 200.583 85.7675 198.584 86.1375 196.584Z" fill="#212121" fill-opacity="1.000000" fill-rule="nonzero"/>
			</g>
		</g>
		<g opacity="0.740000">
			<g opacity="0.740000">
				<path id="Vector" d="M77.8105 192.691C76.7928 193.743 75.7751 194.69 74.8498 195.742C73.9246 196.795 72.9994 197.847 71.9817 199.004C72.3518 197.426 73.1844 196.163 74.2022 195.006C75.2199 193.954 76.4227 193.112 77.8105 192.691Z" fill="#212121" fill-opacity="1.000000" fill-rule="nonzero"/>
			</g>
		</g>
		<g opacity="0.740000">
			<g opacity="0.740000">
				<path id="Vector" d="M69.6687 204.476C69.2986 206.265 68.836 207.948 68.2808 209.632C67.7257 211.316 67.1706 212.999 66.3379 214.578C66.4304 212.684 66.893 211 67.4481 209.211C68.0033 207.528 68.6509 205.949 69.6687 204.476Z" fill="#212121" fill-opacity="1.000000" fill-rule="nonzero"/>
			</g>
		</g>
		<g opacity="0.740000">
			<g opacity="0.740000">
				<path id="Vector" d="M51.627 210.473C53.4774 209.316 55.2353 208.053 56.9007 206.58C58.4735 205.107 59.9539 203.423 61.2492 201.529C62.5445 199.74 63.5622 197.636 64.8575 195.637C65.5051 194.69 66.1528 193.743 66.893 192.796C67.7257 191.954 68.5583 191.217 69.5761 190.796C68.7434 191.428 67.9107 192.27 67.2631 193.217C66.6154 194.058 65.9678 195.111 65.4126 196.058C64.3024 198.057 63.2846 200.267 61.9893 202.161C60.6015 204.055 59.1212 205.844 57.3633 207.211C55.5128 208.579 53.5699 209.632 51.627 210.473Z" fill="#212121" fill-opacity="1.000000" fill-rule="nonzero"/>
			</g>
		</g>
		<g opacity="0.740000">
			<g opacity="0.740000">
				<path id="Vector" d="M57.4558 197.426C58.7511 195.847 60.0464 194.164 61.3417 192.691C62.637 191.112 64.0248 189.639 65.5052 188.166C68.4659 185.325 71.9817 183.22 75.6825 182.273C72.1667 184.062 68.9285 186.272 66.0603 189.008C64.58 190.376 63.1922 191.849 61.8043 193.322C60.4165 194.69 58.9362 196.058 57.4558 197.426Z" fill="#212121" fill-opacity="1.000000" fill-rule="nonzero"/>
			</g>
		</g>
		<g opacity="0.740000">
			<g opacity="0.740000">
				<path id="Vector" d="M47.7411 194.585C49.5915 191.218 52.4597 188.587 55.6979 186.799C58.9362 185.115 62.5445 184.273 66.0603 184.799C62.5445 185.115 59.2137 186.062 56.1605 187.746C52.9223 189.429 50.1466 191.744 47.7411 194.585Z" fill="#212121" fill-opacity="1.000000" fill-rule="nonzero"/>
			</g>
		</g>
		<g opacity="0.740000">
			<g opacity="0.740000">
				<path id="Vector" d="M57.4558 175.329C58.1035 174.593 58.9362 174.277 59.7688 174.172C60.6015 174.067 61.5268 174.277 62.1744 174.803C61.3417 175.014 60.6015 175.119 59.7688 175.224C59.1212 175.329 58.381 175.435 57.4558 175.329Z" fill="#212121" fill-opacity="1.000000" fill-rule="nonzero"/>
			</g>
		</g>
		<g opacity="0.740000">
			<g opacity="0.740000">
				<path id="Vector" d="M47.186 170.805C48.3888 171.226 49.6841 171.541 50.9794 171.646C52.2747 171.857 53.57 171.857 54.7728 171.857C57.3634 171.857 59.954 171.752 62.5446 171.857C65.1352 172.067 67.8183 172.488 70.2239 173.856C71.4266 174.488 72.5369 175.435 73.4621 176.382C74.3873 177.434 75.1275 178.697 75.5901 180.064C74.9424 178.802 74.1097 177.644 73.1845 176.697C72.2593 175.75 71.1491 175.014 69.9463 174.488C67.6333 173.33 65.1352 172.909 62.5446 172.804C59.954 172.594 57.4559 172.804 54.8653 172.594C53.57 172.488 52.2747 172.383 50.9794 172.067C49.5916 171.857 48.3888 171.436 47.186 170.805Z" fill="#212121" fill-opacity="1.000000" fill-rule="nonzero"/>
			</g>
		</g>
		<g opacity="0.740000">
			<g opacity="0.740000">
				<path id="Vector" d="M66.8004 164.281C68.7434 164.807 70.6863 165.544 72.4442 166.701C74.2021 167.859 75.8675 169.437 76.7927 171.542C75.3124 169.963 73.7395 168.701 71.9816 167.648C70.3162 166.491 68.5583 165.544 66.8004 164.281Z" fill="#212121" fill-opacity="1.000000" fill-rule="nonzero"/>
			</g>
		</g>
		<g opacity="0.740000">
			<g opacity="0.740000">
				<path id="Vector" d="M25.4435 143.025C27.3864 141.973 29.5144 141.237 31.5499 140.605C33.6779 139.974 35.8059 139.553 37.9339 139.343C40.0618 139.132 42.2824 139.027 44.4104 139.132C45.5206 139.237 46.5383 139.343 47.6486 139.448C48.7589 139.658 49.7766 139.763 50.8868 140.079C50.3317 140.079 49.7766 140.079 49.314 139.974L47.7411 139.974C46.6309 139.974 45.6131 139.974 44.5029 139.974C42.3749 140.079 40.2469 140.184 38.1189 140.395C35.9909 140.605 33.8629 141.026 31.7349 141.447C29.6995 141.868 27.5715 142.394 25.4435 143.025Z" fill="#212121" fill-opacity="1.000000" fill-rule="nonzero"/>
			</g>
		</g>
		<g opacity="0.740000">
			<g opacity="0.740000">
				<path id="Vector" d="M62.5445 150.917C57.8259 148.918 52.8298 147.55 47.8336 147.129C42.8375 146.708 37.7488 146.919 32.8452 148.181C27.9415 149.339 23.1304 151.338 18.6894 154.074C16.4689 155.442 14.3409 157.02 12.3054 158.704C10.27 160.387 8.327 162.281 6.56909 164.281C8.23448 162.071 10.0849 160.177 12.0279 158.283C13.9708 156.494 16.0988 154.811 18.3193 153.337C22.7603 150.391 27.5714 148.392 32.5676 147.129C37.5638 145.972 42.7449 145.656 47.8336 146.287C53.0148 147.024 57.9184 148.497 62.5445 150.917Z" fill="#212121" fill-opacity="1.000000" fill-rule="nonzero"/>
			</g>
		</g>
		<g opacity="0.740000">
			<g opacity="0.740000">
				<path id="Vector" d="M29.4218 164.701C31.9198 161.86 35.3431 160.071 38.7664 159.229C42.2822 158.493 45.9831 158.703 49.3139 160.177C45.8906 159.44 42.3747 159.44 38.9514 160.282C35.6207 161.018 32.3824 162.491 29.4218 164.701Z" fill="#212121" fill-opacity="1.000000" fill-rule="nonzero"/>
			</g>
		</g>
		<g opacity="0.740000">
			<g opacity="0.740000">
				<path id="Vector" d="M51.257 156.915C52.8298 156.915 54.3102 157.441 55.7905 158.073C57.1783 158.704 58.5662 159.546 59.7689 160.808C58.2886 160.282 56.9008 159.651 55.4204 159.02C54.1251 158.388 52.7373 157.757 51.257 156.915Z" fill="#212121" fill-opacity="1.000000" fill-rule="nonzero"/>
			</g>
		</g>
		<g opacity="0.740000">
			<g opacity="0.740000">
				<path id="Vector" d="M55.4204 164.176C56.9008 164.386 58.3811 165.123 59.6764 165.859C60.9717 166.701 62.267 167.648 63.2847 168.911C61.8044 168.28 60.5091 167.543 59.2138 166.806C57.9185 165.965 56.6232 165.123 55.4204 164.176Z" fill="#212121" fill-opacity="1.000000" fill-rule="nonzero"/>
			</g>
		</g>
		<g opacity="0.740000">
			<g opacity="0.740000">
				<path id="Vector" d="M24.5182 191.533C25.3509 187.956 27.1088 184.799 29.3293 182.063C31.5498 179.433 34.3254 177.223 37.3786 176.065C34.6955 177.959 32.1974 180.169 29.9769 182.8C27.9415 185.43 26.091 188.377 24.5182 191.533Z" fill="#212121" fill-opacity="1.000000" fill-rule="nonzero"/>
			</g>
		</g>
		<g opacity="0.740000">
			<g opacity="0.740000">
				<path id="Vector" d="M27.294 196.796C27.1089 195.428 27.3865 194.165 27.6641 192.902C28.0341 191.64 28.5893 190.482 29.3295 189.535C29.1444 190.903 28.8669 192.061 28.4968 193.218C28.2192 194.481 27.8491 195.638 27.294 196.796Z" fill="#212121" fill-opacity="1.000000" fill-rule="nonzero"/>
			</g>
		</g>
		<g opacity="0.740000">
			<g opacity="0.740000">
				<path id="Vector" d="M33.3077 206.265C32.7526 204.055 32.475 201.74 32.3825 199.425C32.2899 197.11 32.5675 194.795 33.0301 192.586C33.4927 190.376 34.1404 188.166 35.0656 186.062L35.8058 184.589L36.6384 183.115L37.5637 181.748C37.8412 181.327 38.2113 180.906 38.5814 180.485C38.3038 181.011 38.1188 181.432 37.8412 181.958L37.101 183.431L36.4534 184.904L35.8058 186.483C35.0656 188.587 34.4179 190.692 33.9553 192.901C33.4927 195.111 33.2152 197.321 33.1227 199.531C33.0301 201.74 33.1227 203.95 33.3077 206.265Z" fill="#212121" fill-opacity="1.000000" fill-rule="nonzero"/>
			</g>
		</g>
		<g opacity="0.740000">
			<g opacity="0.740000">
				<path id="Vector" d="M17.5792 220.47C18.967 216.893 20.91 213.525 23.1305 210.474C25.351 207.422 27.9416 204.687 30.8098 202.372C28.4042 205.213 26.0912 208.054 23.8707 211.105C21.6502 214.157 19.6147 217.208 17.5792 220.47Z" fill="#212121" fill-opacity="1.000000" fill-rule="nonzero"/>
			</g>
		</g>
		<g opacity="0.740000">
			<g opacity="0.740000">
				<path id="Vector" d="M36.916 196.794C37.286 195.953 37.7486 195.321 38.3038 194.795C38.8589 194.269 39.5066 193.848 40.3392 193.638C39.9692 194.479 39.5066 195.111 38.9514 195.637C38.3963 196.163 37.7486 196.584 36.916 196.794Z" fill="#212121" fill-opacity="1.000000" fill-rule="nonzero"/>
			</g>
		</g>
		<g opacity="0.740000">
			<g opacity="0.740000">
				<path id="Vector" d="M37.5638 190.797C39.6918 189.219 42.0974 188.061 44.5029 187.114C46.9085 186.272 49.4066 185.641 51.9972 185.431C49.5916 186.378 47.1861 187.219 44.7805 188.061C42.375 189.008 40.0619 189.955 37.5638 190.797Z" fill="#212121" fill-opacity="1.000000" fill-rule="nonzero"/>
			</g>
		</g>
		<g opacity="0.740000">
			<g opacity="0.740000">
				<path id="Vector" d="M88.1731 179.012C89.4684 175.119 91.2263 171.331 93.9094 168.385C95.2047 166.911 96.7776 165.649 98.443 164.702C100.108 163.755 101.959 163.229 103.717 162.702C105.567 162.281 107.418 161.966 109.268 161.861C111.118 161.861 112.969 161.966 114.819 162.176C118.428 162.492 122.128 162.913 125.644 161.334C123.979 162.281 122.128 162.702 120.278 162.913C118.428 163.123 116.577 163.018 114.727 162.913C112.876 162.808 111.118 162.702 109.268 162.808C107.51 162.913 105.66 163.229 103.902 163.649C102.144 164.07 100.386 164.702 98.7205 165.543C97.0551 166.385 95.5748 167.543 94.2795 168.911C92.9842 170.279 91.7814 171.857 90.7637 173.646C89.8385 175.224 89.0058 177.118 88.1731 179.012Z" fill="#212121" fill-opacity="1.000000" fill-rule="nonzero"/>
			</g>
		</g>
		<g opacity="0.740000">
			<g opacity="0.740000">
				<path id="Vector" d="M94.2793 174.383C95.4821 172.068 97.24 170.068 99.1829 168.49C101.126 166.912 103.346 165.754 105.752 165.228C103.624 166.491 101.681 167.859 99.7381 169.332C97.8876 170.91 96.1297 172.594 94.2793 174.383Z" fill="#212121" fill-opacity="1.000000" fill-rule="nonzero"/>
			</g>
		</g>
		<g opacity="0.740000">
			<g opacity="0.740000">
				<path id="Vector" d="M96.1298 175.856C96.3148 175.119 96.6849 174.488 97.1475 174.067C97.6101 173.646 98.2578 173.33 98.9054 173.225C98.6278 173.962 98.1652 174.383 97.7026 174.803C97.24 175.224 96.7774 175.645 96.1298 175.856Z" fill="#212121" fill-opacity="1.000000" fill-rule="nonzero"/>
			</g>
		</g>
		<g opacity="0.740000">
			<g opacity="0.740000">
				<path id="Vector" d="M85.5822 182.59C85.2122 182.274 85.2122 181.958 85.2122 181.748C85.3047 181.432 85.3972 181.222 85.7673 181.011C86.1374 181.327 86.1374 181.643 86.1374 181.853C86.0449 182.169 85.9524 182.379 85.5822 182.59Z" fill="#212121" fill-opacity="1.000000" fill-rule="nonzero"/>
			</g>
		</g>
		<g opacity="0.740000">
			<g opacity="0.740000">
				<path id="Vector" d="M92.3365 164.385C92.3365 162.071 93.0767 159.861 93.9094 157.862C94.8346 155.862 95.9449 153.968 97.2402 152.285C96.5 154.389 95.5748 156.388 94.7421 158.282C93.8169 160.282 93.0767 162.281 92.3365 164.385Z" fill="#212121" fill-opacity="1.000000" fill-rule="nonzero"/>
			</g>
		</g>
		<g opacity="0.740000">
			<g opacity="0.740000">
				<path id="Vector" d="M97.1476 159.335C98.3504 157.336 99.6457 155.547 101.126 153.969C102.606 152.285 104.179 150.707 105.845 149.339C107.51 147.971 109.268 146.708 111.211 145.656C112.136 145.13 113.061 144.604 114.079 144.183C115.097 143.762 116.022 143.341 117.04 143.025C116.577 143.341 116.114 143.552 115.652 143.867L114.264 144.709C113.339 145.235 112.414 145.866 111.581 146.393C109.823 147.55 108.065 148.813 106.492 150.286C104.827 151.654 103.254 153.127 101.681 154.6C100.108 155.968 98.6279 157.652 97.1476 159.335Z" fill="#212121" fill-opacity="1.000000" fill-rule="nonzero"/>
			</g>
		</g>
		<g opacity="0.740000">
			<g opacity="0.740000">
				<path id="Vector" d="M88.8207 157.441C88.5431 154.39 88.8207 151.233 89.4683 148.181C90.116 145.13 91.2263 142.184 92.7991 139.658C91.8739 142.604 91.0412 145.446 90.3936 148.392C89.6534 151.443 89.1908 154.39 88.8207 157.441Z" fill="#212121" fill-opacity="1.000000" fill-rule="nonzero"/>
			</g>
		</g>
	</g>
</svg>
